<svg xmlns:svg="http://www.w3.org/2000/svg" xmlns="http://www.w3.org/2000/svg" version="1.1" width="1500" height="1500">
<rect x="95.000000" y="95.000000" width="120.000000" height="80.000000" fill="Moccasin" stroke="dodgerblue" stroke-width="1" />
<rect x="230.000000" y="95.000000" width="120.000000" height="80.000000" fill="Moccasin" stroke="dodgerblue" stroke-width="1" />
<rect x="365.000000" y="95.000000" width="120.000000" height="80.000000" fill="Moccasin" stroke="dodgerblue" stroke-width="1" />
<rect x="500.000000" y="95.000000" width="120.000000" height="80.000000" fill="Moccasin" stroke="dodgerblue" stroke-width="1" />
<rect x="635.000000" y="95.000000" width="120.000000" height="80.000000" fill="Moccasin" stroke="dodgerblue" stroke-width="1" />
<rect x="770.000000" y="95.000000" width="120.000000" height="80.000000" fill="Moccasin" stroke="dodgerblue" stroke-width="1" />
<rect x="905.000000" y="95.000000" width="120.000000" height="80.000000" fill="Moccasin" stroke="dodgerblue" stroke-width="1" />
<rect x="1040.000000" y="95.000000" width="120.000000" height="80.000000" fill="Moccasin" stroke="dodgerblue" stroke-width="1" />
<rect x="1175.000000" y="95.000000" width="120.000000" height="80.000000" fill="Moccasin" stroke="dodgerblue" stroke-width="1" />
<rect x="1310.000000" y="95.000000" width="120.000000" height="80.000000" fill="Moccasin" stroke="dodgerblue" stroke-width="1" />
<rect x="95.000000" y="190.000000" width="120.000000" height="80.000000" fill="Moccasin" stroke="dodgerblue" stroke-width="1" />
<rect x="230.000000" y="190.000000" width="120.000000" height="80.000000" fill="Moccasin" stroke="dodgerblue" stroke-width="1" />
<rect x="365.000000" y="190.000000" width="120.000000" height="80.000000" fill="Moccasin" stroke="dodgerblue" stroke-width="1" />
<rect x="500.000000" y="190.000000" width="120.000000" height="80.000000" fill="Moccasin" stroke="dodgerblue" stroke-width="1" />
<rect x="635.000000" y="190.000000" width="120.000000" height="80.000000" fill="Moccasin" stroke="dodgerblue" stroke-width="1" />
<rect x="770.000000" y="190.000000" width="120.000000" height="80.000000" fill="Moccasin" stroke="dodgerblue" stroke-width="1" />
<rect x="905.000000" y="190.000000" width="120.000000" height="80.000000" fill="Moccasin" stroke="dodgerblue" stroke-width="1" />
<rect x="1040.000000" y="190.000000" width="120.000000" height="80.000000" fill="Moccasin" stroke="dodgerblue" stroke-width="1" />
<rect x="1175.000000" y="190.000000" width="120.000000" height="80.000000" fill="Moccasin" stroke="dodgerblue" stroke-width="1" />
<rect x="1310.000000" y="190.000000" width="120.000000" height="80.000000" fill="Moccasin" stroke="dodgerblue" stroke-width="1" />
<rect x="95.000000" y="285.000000" width="120.000000" height="80.000000" fill="Moccasin" stroke="dodgerblue" stroke-width="1" />
<rect x="230.000000" y="285.000000" width="120.000000" height="80.000000" fill="Moccasin" stroke="dodgerblue" stroke-width="1" />
<rect x="365.000000" y="285.000000" width="120.000000" height="80.000000" fill="Moccasin" stroke="dodgerblue" stroke-width="1" />
<rect x="500.000000" y="285.000000" width="120.000000" height="80.000000" fill="Moccasin" stroke="dodgerblue" stroke-width="1" />
<rect x="635.000000" y="285.000000" width="120.000000" height="80.000000" fill="Moccasin" stroke="dodgerblue" stroke-width="1" />
<rect x="770.000000" y="285.000000" width="120.000000" height="80.000000" fill="Moccasin" stroke="dodgerblue" stroke-width="1" />
<rect x="905.000000" y="285.000000" width="120.000000" height="80.000000" fill="Moccasin" stroke="dodgerblue" stroke-width="1" />
<rect x="1040.000000" y="285.000000" width="120.000000" height="80.000000" fill="Moccasin" stroke="dodgerblue" stroke-width="1" />
<rect x="1175.000000" y="285.000000" width="120.000000" height="80.000000" fill="Moccasin" stroke="dodgerblue" stroke-width="1" />
<rect x="1310.000000" y="285.000000" width="120.000000" height="80.000000" fill="Moccasin" stroke="dodgerblue" stroke-width="1" />
<rect x="95.000000" y="380.000000" width="120.000000" height="80.000000" fill="Moccasin" stroke="dodgerblue" stroke-width="1" />
<rect x="230.000000" y="380.000000" width="120.000000" height="80.000000" fill="Moccasin" stroke="dodgerblue" stroke-width="1" />
<rect x="365.000000" y="380.000000" width="120.000000" height="80.000000" fill="Moccasin" stroke="dodgerblue" stroke-width="1" />
<rect x="500.000000" y="380.000000" width="120.000000" height="80.000000" fill="Moccasin" stroke="dodgerblue" stroke-width="1" />
<rect x="635.000000" y="380.000000" width="120.000000" height="80.000000" fill="Moccasin" stroke="dodgerblue" stroke-width="1" />
<rect x="770.000000" y="380.000000" width="120.000000" height="80.000000" fill="Moccasin" stroke="dodgerblue" stroke-width="1" />
<rect x="905.000000" y="380.000000" width="120.000000" height="80.000000" fill="Moccasin" stroke="dodgerblue" stroke-width="1" />
<rect x="1040.000000" y="380.000000" width="120.000000" height="80.000000" fill="Moccasin" stroke="dodgerblue" stroke-width="1" />
<rect x="1175.000000" y="380.000000" width="120.000000" height="80.000000" fill="Moccasin" stroke="dodgerblue" stroke-width="1" />
<rect x="1310.000000" y="380.000000" width="120.000000" height="80.000000" fill="Moccasin" stroke="dodgerblue" stroke-width="1" />
<rect x="95.000000" y="475.000000" width="120.000000" height="80.000000" fill="Moccasin" stroke="dodgerblue" stroke-width="1" />
<rect x="230.000000" y="475.000000" width="120.000000" height="80.000000" fill="Moccasin" stroke="dodgerblue" stroke-width="1" />
<rect x="365.000000" y="475.000000" width="120.000000" height="80.000000" fill="Moccasin" stroke="dodgerblue" stroke-width="1" />
<rect x="500.000000" y="475.000000" width="120.000000" height="80.000000" fill="Moccasin" stroke="dodgerblue" stroke-width="1" />
<rect x="635.000000" y="475.000000" width="120.000000" height="80.000000" fill="Moccasin" stroke="dodgerblue" stroke-width="1" />
<rect x="770.000000" y="475.000000" width="120.000000" height="80.000000" fill="Moccasin" stroke="dodgerblue" stroke-width="1" />
<rect x="905.000000" y="475.000000" width="120.000000" height="80.000000" fill="Moccasin" stroke="dodgerblue" stroke-width="1" />
<rect x="1040.000000" y="475.000000" width="120.000000" height="80.000000" fill="Moccasin" stroke="dodgerblue" stroke-width="1" />
<rect x="1175.000000" y="475.000000" width="120.000000" height="80.000000" fill="Moccasin" stroke="dodgerblue" stroke-width="1" />
<rect x="1310.000000" y="475.000000" width="120.000000" height="80.000000" fill="Moccasin" stroke="dodgerblue" stroke-width="1" />
<rect x="95.000000" y="570.000000" width="120.000000" height="80.000000" fill="Moccasin" stroke="dodgerblue" stroke-width="1" />
<rect x="230.000000" y="570.000000" width="120.000000" height="80.000000" fill="Moccasin" stroke="dodgerblue" stroke-width="1" />
<rect x="365.000000" y="570.000000" width="120.000000" height="80.000000" fill="Moccasin" stroke="dodgerblue" stroke-width="1" />
<rect x="500.000000" y="570.000000" width="120.000000" height="80.000000" fill="Moccasin" stroke="dodgerblue" stroke-width="1" />
<rect x="635.000000" y="570.000000" width="120.000000" height="80.000000" fill="Moccasin" stroke="dodgerblue" stroke-width="1" />
<rect x="770.000000" y="570.000000" width="120.000000" height="80.000000" fill="Moccasin" stroke="dodgerblue" stroke-width="1" />
<rect x="905.000000" y="570.000000" width="120.000000" height="80.000000" fill="Moccasin" stroke="dodgerblue" stroke-width="1" />
<rect x="1040.000000" y="570.000000" width="120.000000" height="80.000000" fill="Moccasin" stroke="dodgerblue" stroke-width="1" />
<rect x="1175.000000" y="570.000000" width="120.000000" height="80.000000" fill="Moccasin" stroke="dodgerblue" stroke-width="1" />
<rect x="1310.000000" y="570.000000" width="120.000000" height="80.000000" fill="Moccasin" stroke="dodgerblue" stroke-width="1" />
<rect x="95.000000" y="665.000000" width="120.000000" height="80.000000" fill="Moccasin" stroke="dodgerblue" stroke-width="1" />
<rect x="230.000000" y="665.000000" width="120.000000" height="80.000000" fill="Moccasin" stroke="dodgerblue" stroke-width="1" />
<rect x="365.000000" y="665.000000" width="120.000000" height="80.000000" fill="Moccasin" stroke="dodgerblue" stroke-width="1" />
<rect x="500.000000" y="665.000000" width="120.000000" height="80.000000" fill="Moccasin" stroke="dodgerblue" stroke-width="1" />
<rect x="635.000000" y="665.000000" width="120.000000" height="80.000000" fill="Moccasin" stroke="dodgerblue" stroke-width="1" />
<rect x="770.000000" y="665.000000" width="120.000000" height="80.000000" fill="Moccasin" stroke="dodgerblue" stroke-width="1" />
<rect x="905.000000" y="665.000000" width="120.000000" height="80.000000" fill="Moccasin" stroke="dodgerblue" stroke-width="1" />
<rect x="1040.000000" y="665.000000" width="120.000000" height="80.000000" fill="Moccasin" stroke="dodgerblue" stroke-width="1" />
<rect x="1175.000000" y="665.000000" width="120.000000" height="80.000000" fill="Moccasin" stroke="dodgerblue" stroke-width="1" />
<rect x="1310.000000" y="665.000000" width="120.000000" height="80.000000" fill="Moccasin" stroke="dodgerblue" stroke-width="1" />
<rect x="95.000000" y="760.000000" width="120.000000" height="80.000000" fill="Moccasin" stroke="dodgerblue" stroke-width="1" />
<rect x="230.000000" y="760.000000" width="120.000000" height="80.000000" fill="Moccasin" stroke="dodgerblue" stroke-width="1" />
<rect x="365.000000" y="760.000000" width="120.000000" height="80.000000" fill="Moccasin" stroke="dodgerblue" stroke-width="1" />
<rect x="500.000000" y="760.000000" width="120.000000" height="80.000000" fill="Moccasin" stroke="dodgerblue" stroke-width="1" />
<rect x="635.000000" y="760.000000" width="120.000000" height="80.000000" fill="Moccasin" stroke="dodgerblue" stroke-width="1" />
<rect x="770.000000" y="760.000000" width="120.000000" height="80.000000" fill="Moccasin" stroke="dodgerblue" stroke-width="1" />
<rect x="905.000000" y="760.000000" width="120.000000" height="80.000000" fill="Moccasin" stroke="dodgerblue" stroke-width="1" />
<rect x="1040.000000" y="760.000000" width="120.000000" height="80.000000" fill="Moccasin" stroke="dodgerblue" stroke-width="1" />
<rect x="1175.000000" y="760.000000" width="120.000000" height="80.000000" fill="Moccasin" stroke="dodgerblue" stroke-width="1" />
<rect x="1310.000000" y="760.000000" width="120.000000" height="80.000000" fill="Moccasin" stroke="dodgerblue" stroke-width="1" />
<rect x="95.000000" y="855.000000" width="120.000000" height="80.000000" fill="Moccasin" stroke="dodgerblue" stroke-width="1" />
<rect x="230.000000" y="855.000000" width="120.000000" height="80.000000" fill="Moccasin" stroke="dodgerblue" stroke-width="1" />
<rect x="365.000000" y="855.000000" width="120.000000" height="80.000000" fill="Moccasin" stroke="dodgerblue" stroke-width="1" />
<rect x="500.000000" y="855.000000" width="120.000000" height="80.000000" fill="Moccasin" stroke="dodgerblue" stroke-width="1" />
<rect x="635.000000" y="855.000000" width="120.000000" height="80.000000" fill="Moccasin" stroke="dodgerblue" stroke-width="1" />
<rect x="770.000000" y="855.000000" width="120.000000" height="80.000000" fill="Moccasin" stroke="dodgerblue" stroke-width="1" />
<rect x="905.000000" y="855.000000" width="120.000000" height="80.000000" fill="Moccasin" stroke="dodgerblue" stroke-width="1" />
<rect x="1040.000000" y="855.000000" width="120.000000" height="80.000000" fill="Moccasin" stroke="dodgerblue" stroke-width="1" />
<rect x="1175.000000" y="855.000000" width="120.000000" height="80.000000" fill="Moccasin" stroke="dodgerblue" stroke-width="1" />
<rect x="1310.000000" y="855.000000" width="120.000000" height="80.000000" fill="Moccasin" stroke="dodgerblue" stroke-width="1" />
<rect x="95.000000" y="950.000000" width="120.000000" height="80.000000" fill="Moccasin" stroke="dodgerblue" stroke-width="1" />
<rect x="230.000000" y="950.000000" width="120.000000" height="80.000000" fill="Moccasin" stroke="dodgerblue" stroke-width="1" />
<rect x="365.000000" y="950.000000" width="120.000000" height="80.000000" fill="Moccasin" stroke="dodgerblue" stroke-width="1" />
<rect x="500.000000" y="950.000000" width="120.000000" height="80.000000" fill="Moccasin" stroke="dodgerblue" stroke-width="1" />
<rect x="635.000000" y="950.000000" width="120.000000" height="80.000000" fill="Moccasin" stroke="dodgerblue" stroke-width="1" />
<rect x="770.000000" y="950.000000" width="120.000000" height="80.000000" fill="Moccasin" stroke="dodgerblue" stroke-width="1" />
<rect x="905.000000" y="950.000000" width="120.000000" height="80.000000" fill="Moccasin" stroke="dodgerblue" stroke-width="1" />
<rect x="1040.000000" y="950.000000" width="120.000000" height="80.000000" fill="Moccasin" stroke="dodgerblue" stroke-width="1" />
<rect x="1175.000000" y="950.000000" width="120.000000" height="80.000000" fill="Moccasin" stroke="dodgerblue" stroke-width="1" />
<rect x="1310.000000" y="950.000000" width="120.000000" height="80.000000" fill="Moccasin" stroke="dodgerblue" stroke-width="1" />
<line x1="1219.000000" y1="0" x2="1219.000000" y2="475.000000" stroke="red" stroke-width="1" stroke-dasharray="6,4" />
<text x="1219.000000" y="14" fill="red" font-size="11" text-anchor="middle">R1</text>
<line x1="322.000000" y1="0" x2="322.000000" y2="475.000000" stroke="red" stroke-width="1" stroke-dasharray="6,4" />
<text x="322.000000" y="14" fill="red" font-size="11" text-anchor="middle">R2</text>
<line x1="1238.750000" y1="471.250000" x2="1306.250000" y2="471.250000" stroke="#ff6600" stroke-width="3" stroke-linecap="round" />
<line x1="1306.250000" y1="471.250000" x2="1306.250000" y2="423.750000" stroke="#ff6600" stroke-width="3" stroke-linecap="round" />
<line x1="1306.250000" y1="423.750000" x2="1306.250000" y2="376.250000" stroke="#ff6600" stroke-width="3" stroke-linecap="round" />
<line x1="1306.250000" y1="376.250000" x2="1238.750000" y2="376.250000" stroke="#ff6600" stroke-width="3" stroke-linecap="round" />
<line x1="1238.750000" y1="376.250000" x2="1171.250000" y2="376.250000" stroke="#ff6600" stroke-width="3" stroke-linecap="round" />
<line x1="1171.250000" y1="376.250000" x2="1171.250000" y2="423.750000" stroke="#ff6600" stroke-width="3" stroke-linecap="round" />
<line x1="1171.250000" y1="423.750000" x2="1171.250000" y2="471.250000" stroke="#ff6600" stroke-width="3" stroke-linecap="round" />
<line x1="1171.250000" y1="471.250000" x2="1171.250000" y2="518.750000" stroke="#ff6600" stroke-width="3" stroke-linecap="round" />
<line x1="1171.250000" y1="518.750000" x2="1171.250000" y2="566.250000" stroke="#ff6600" stroke-width="3" stroke-linecap="round" />
<line x1="1171.250000" y1="566.250000" x2="1103.750000" y2="566.250000" stroke="#ff6600" stroke-width="3" stroke-linecap="round" />
<line x1="1103.750000" y1="566.250000" x2="1036.250000" y2="566.250000" stroke="#ff6600" stroke-width="3" stroke-linecap="round" />
<line x1="1036.250000" y1="566.250000" x2="968.750000" y2="566.250000" stroke="#ff6600" stroke-width="3" stroke-linecap="round" />
<line x1="968.750000" y1="566.250000" x2="901.250000" y2="566.250000" stroke="#ff6600" stroke-width="3" stroke-linecap="round" />
<line x1="901.250000" y1="566.250000" x2="833.750000" y2="566.250000" stroke="#ff6600" stroke-width="3" stroke-linecap="round" />
<line x1="833.750000" y1="566.250000" x2="766.250000" y2="566.250000" stroke="#ff6600" stroke-width="3" stroke-linecap="round" />
<line x1="766.250000" y1="566.250000" x2="698.750000" y2="566.250000" stroke="#ff6600" stroke-width="3" stroke-linecap="round" />
<line x1="698.750000" y1="566.250000" x2="631.250000" y2="566.250000" stroke="#ff6600" stroke-width="3" stroke-linecap="round" />
<line x1="631.250000" y1="566.250000" x2="563.750000" y2="566.250000" stroke="#ff6600" stroke-width="3" stroke-linecap="round" />
<line x1="563.750000" y1="566.250000" x2="496.250000" y2="566.250000" stroke="#ff6600" stroke-width="3" stroke-linecap="round" />
<line x1="496.250000" y1="566.250000" x2="428.750000" y2="566.250000" stroke="#ff6600" stroke-width="3" stroke-linecap="round" />
<line x1="428.750000" y1="566.250000" x2="361.250000" y2="566.250000" stroke="#ff6600" stroke-width="3" stroke-linecap="round" />
<line x1="361.250000" y1="566.250000" x2="293.750000" y2="566.250000" stroke="#ff6600" stroke-width="3" stroke-linecap="round" />
<line x1="293.750000" y1="566.250000" x2="226.250000" y2="566.250000" stroke="#ff6600" stroke-width="3" stroke-linecap="round" />
<line x1="226.250000" y1="566.250000" x2="226.250000" y2="518.750000" stroke="#ff6600" stroke-width="3" stroke-linecap="round" />
<line x1="226.250000" y1="518.750000" x2="226.250000" y2="471.250000" stroke="#ff6600" stroke-width="3" stroke-linecap="round" />
<line x1="226.250000" y1="471.250000" x2="293.750000" y2="471.250000" stroke="#ff6600" stroke-width="3" stroke-linecap="round" />
<circle cx="1238.750000" cy="471.250000" r="10" fill="#66ff00" stroke="white" stroke-width="1.5" />
<text x="1238.750000" y="471.250000" fill="white" font-size="11" font-weight="bold" text-anchor="middle" dominant-baseline="middle">I</text>
<circle cx="293.750000" cy="471.250000" r="10" fill="#66ff00" stroke="white" stroke-width="1.5" />
<text x="293.750000" y="471.250000" fill="white" font-size="11" font-weight="bold" text-anchor="middle" dominant-baseline="middle">F</text>
</svg>
