<svg xmlns:svg="http://www.w3.org/2000/svg" xmlns="http://www.w3.org/2000/svg" xmlns:xlink="http://www.w3.org/1999/xlink" version="1.1" width="1500" height="1500">
<rect x="95.000000" y="95.000000" width="120.000000" height="80.000000" fill="Moccasin" stroke="dodgerblue" stroke-width="1" />
<rect x="230.000000" y="95.000000" width="120.000000" height="80.000000" fill="Moccasin" stroke="dodgerblue" stroke-width="1" />
<rect x="365.000000" y="95.000000" width="120.000000" height="80.000000" fill="Moccasin" stroke="dodgerblue" stroke-width="1" />
<rect x="500.000000" y="95.000000" width="120.000000" height="80.000000" fill="Moccasin" stroke="dodgerblue" stroke-width="1" />
<rect x="635.000000" y="95.000000" width="120.000000" height="80.000000" fill="Moccasin" stroke="dodgerblue" stroke-width="1" />
<rect x="770.000000" y="95.000000" width="120.000000" height="80.000000" fill="Moccasin" stroke="dodgerblue" stroke-width="1" />
<rect x="905.000000" y="95.000000" width="120.000000" height="80.000000" fill="Moccasin" stroke="dodgerblue" stroke-width="1" />
<rect x="1040.000000" y="95.000000" width="120.000000" height="80.000000" fill="Moccasin" stroke="dodgerblue" stroke-width="1" />
<rect x="1175.000000" y="95.000000" width="120.000000" height="80.000000" fill="Moccasin" stroke="dodgerblue" stroke-width="1" />
<rect x="1310.000000" y="95.000000" width="120.000000" height="80.000000" fill="Moccasin" stroke="dodgerblue" stroke-width="1" />
<rect x="95.000000" y="190.000000" width="120.000000" height="80.000000" fill="Moccasin" stroke="dodgerblue" stroke-width="1" />
<rect x="230.000000" y="190.000000" width="120.000000" height="80.000000" fill="Moccasin" stroke="dodgerblue" stroke-width="1" />
<rect x="365.000000" y="190.000000" width="120.000000" height="80.000000" fill="Moccasin" stroke="dodgerblue" stroke-width="1" />
<rect x="500.000000" y="190.000000" width="120.000000" height="80.000000" fill="Moccasin" stroke="dodgerblue" stroke-width="1" />
<rect x="635.000000" y="190.000000" width="120.000000" height="80.000000" fill="Moccasin" stroke="dodgerblue" stroke-width="1" />
<rect x="770.000000" y="190.000000" width="120.000000" height="80.000000" fill="Moccasin" stroke="dodgerblue" stroke-width="1" />
<rect x="905.000000" y="190.000000" width="120.000000" height="80.000000" fill="Moccasin" stroke="dodgerblue" stroke-width="1" />
<rect x="1040.000000" y="190.000000" width="120.000000" height="80.000000" fill="Moccasin" stroke="dodgerblue" stroke-width="1" />
<rect x="1175.000000" y="190.000000" width="120.000000" height="80.000000" fill="Moccasin" stroke="dodgerblue" stroke-width="1" />
<rect x="1310.000000" y="190.000000" width="120.000000" height="80.000000" fill="Moccasin" stroke="dodgerblue" stroke-width="1" />
<rect x="95.000000" y="285.000000" width="120.000000" height="80.000000" fill="Moccasin" stroke="dodgerblue" stroke-width="1" />
<rect x="230.000000" y="285.000000" width="120.000000" height="80.000000" fill="Moccasin" stroke="dodgerblue" stroke-width="1" />
<rect x="365.000000" y="285.000000" width="120.000000" height="80.000000" fill="Moccasin" stroke="dodgerblue" stroke-width="1" />
<rect x="500.000000" y="285.000000" width="120.000000" height="80.000000" fill="Moccasin" stroke="dodgerblue" stroke-width="1" />
<rect x="635.000000" y="285.000000" width="120.000000" height="80.000000" fill="Moccasin" stroke="dodgerblue" stroke-width="1" />
<rect x="770.000000" y="285.000000" width="120.000000" height="80.000000" fill="Moccasin" stroke="dodgerblue" stroke-width="1" />
<rect x="905.000000" y="285.000000" width="120.000000" height="80.000000" fill="Moccasin" stroke="dodgerblue" stroke-width="1" />
<rect x="1040.000000" y="285.000000" width="120.000000" height="80.000000" fill="Moccasin" stroke="dodgerblue" stroke-width="1" />
<rect x="1175.000000" y="285.000000" width="120.000000" height="80.000000" fill="Moccasin" stroke="dodgerblue" stroke-width="1" />
<rect x="1310.000000" y="285.000000" width="120.000000" height="80.000000" fill="Moccasin" stroke="dodgerblue" stroke-width="1" />
<rect x="95.000000" y="380.000000" width="120.000000" height="80.000000" fill="Moccasin" stroke="dodgerblue" stroke-width="1" />
<rect x="230.000000" y="380.000000" width="120.000000" height="80.000000" fill="Moccasin" stroke="dodgerblue" stroke-width="1" />
<rect x="365.000000" y="380.000000" width="120.000000" height="80.000000" fill="Moccasin" stroke="dodgerblue" stroke-width="1" />
<rect x="500.000000" y="380.000000" width="120.000000" height="80.000000" fill="Moccasin" stroke="dodgerblue" stroke-width="1" />
<rect x="635.000000" y="380.000000" width="120.000000" height="80.000000" fill="Moccasin" stroke="dodgerblue" stroke-width="1" />
<rect x="770.000000" y="380.000000" width="120.000000" height="80.000000" fill="Moccasin" stroke="dodgerblue" stroke-width="1" />
<rect x="905.000000" y="380.000000" width="120.000000" height="80.000000" fill="Moccasin" stroke="dodgerblue" stroke-width="1" />
<rect x="1040.000000" y="380.000000" width="120.000000" height="80.000000" fill="Moccasin" stroke="dodgerblue" stroke-width="1" />
<rect x="1175.000000" y="380.000000" width="120.000000" height="80.000000" fill="Moccasin" stroke="dodgerblue" stroke-width="1" />
<rect x="1310.000000" y="380.000000" width="120.000000" height="80.000000" fill="Moccasin" stroke="dodgerblue" stroke-width="1" />
<rect x="95.000000" y="475.000000" width="120.000000" height="80.000000" fill="Moccasin" stroke="dodgerblue" stroke-width="1" />
<rect x="230.000000" y="475.000000" width="120.000000" height="80.000000" fill="Moccasin" stroke="dodgerblue" stroke-width="1" />
<rect x="365.000000" y="475.000000" width="120.000000" height="80.000000" fill="Moccasin" stroke="dodgerblue" stroke-width="1" />
<rect x="500.000000" y="475.000000" width="120.000000" height="80.000000" fill="Moccasin" stroke="dodgerblue" stroke-width="1" />
<rect x="635.000000" y="475.000000" width="120.000000" height="80.000000" fill="Moccasin" stroke="dodgerblue" stroke-width="1" />
<rect x="770.000000" y="475.000000" width="120.000000" height="80.000000" fill="Moccasin" stroke="dodgerblue" stroke-width="1" />
<rect x="905.000000" y="475.000000" width="120.000000" height="80.000000" fill="Moccasin" stroke="dodgerblue" stroke-width="1" />
<rect x="1040.000000" y="475.000000" width="120.000000" height="80.000000" fill="Moccasin" stroke="dodgerblue" stroke-width="1" />
<rect x="1175.000000" y="475.000000" width="120.000000" height="80.000000" fill="Moccasin" stroke="dodgerblue" stroke-width="1" />
<rect x="1310.000000" y="475.000000" width="120.000000" height="80.000000" fill="Moccasin" stroke="dodgerblue" stroke-width="1" />
<rect x="95.000000" y="570.000000" width="120.000000" height="80.000000" fill="Moccasin" stroke="dodgerblue" stroke-width="1" />
<rect x="230.000000" y="570.000000" width="120.000000" height="80.000000" fill="Moccasin" stroke="dodgerblue" stroke-width="1" />
<rect x="365.000000" y="570.000000" width="120.000000" height="80.000000" fill="Moccasin" stroke="dodgerblue" stroke-width="1" />
<rect x="500.000000" y="570.000000" width="120.000000" height="80.000000" fill="Moccasin" stroke="dodgerblue" stroke-width="1" />
<rect x="635.000000" y="570.000000" width="120.000000" height="80.000000" fill="Moccasin" stroke="dodgerblue" stroke-width="1" />
<rect x="770.000000" y="570.000000" width="120.000000" height="80.000000" fill="Moccasin" stroke="dodgerblue" stroke-width="1" />
<rect x="905.000000" y="570.000000" width="120.000000" height="80.000000" fill="Moccasin" stroke="dodgerblue" stroke-width="1" />
<rect x="1040.000000" y="570.000000" width="120.000000" height="80.000000" fill="Moccasin" stroke="dodgerblue" stroke-width="1" />
<rect x="1175.000000" y="570.000000" width="120.000000" height="80.000000" fill="Moccasin" stroke="dodgerblue" stroke-width="1" />
<rect x="1310.000000" y="570.000000" width="120.000000" height="80.000000" fill="Moccasin" stroke="dodgerblue" stroke-width="1" />
<rect x="95.000000" y="665.000000" width="120.000000" height="80.000000" fill="Moccasin" stroke="dodgerblue" stroke-width="1" />
<rect x="230.000000" y="665.000000" width="120.000000" height="80.000000" fill="Moccasin" stroke="dodgerblue" stroke-width="1" />
<rect x="365.000000" y="665.000000" width="120.000000" height="80.000000" fill="Moccasin" stroke="dodgerblue" stroke-width="1" />
<rect x="500.000000" y="665.000000" width="120.000000" height="80.000000" fill="Moccasin" stroke="dodgerblue" stroke-width="1" />
<rect x="635.000000" y="665.000000" width="120.000000" height="80.000000" fill="Moccasin" stroke="dodgerblue" stroke-width="1" />
<rect x="770.000000" y="665.000000" width="120.000000" height="80.000000" fill="Moccasin" stroke="dodgerblue" stroke-width="1" />
<rect x="905.000000" y="665.000000" width="120.000000" height="80.000000" fill="Moccasin" stroke="dodgerblue" stroke-width="1" />
<rect x="1040.000000" y="665.000000" width="120.000000" height="80.000000" fill="Moccasin" stroke="dodgerblue" stroke-width="1" />
<rect x="1175.000000" y="665.000000" width="120.000000" height="80.000000" fill="Moccasin" stroke="dodgerblue" stroke-width="1" />
<rect x="1310.000000" y="665.000000" width="120.000000" height="80.000000" fill="Moccasin" stroke="dodgerblue" stroke-width="1" />
<rect x="95.000000" y="760.000000" width="120.000000" height="80.000000" fill="Moccasin" stroke="dodgerblue" stroke-width="1" />
<rect x="230.000000" y="760.000000" width="120.000000" height="80.000000" fill="Moccasin" stroke="dodgerblue" stroke-width="1" />
<rect x="365.000000" y="760.000000" width="120.000000" height="80.000000" fill="Moccasin" stroke="dodgerblue" stroke-width="1" />
<rect x="500.000000" y="760.000000" width="120.000000" height="80.000000" fill="Moccasin" stroke="dodgerblue" stroke-width="1" />
<rect x="635.000000" y="760.000000" width="120.000000" height="80.000000" fill="Moccasin" stroke="dodgerblue" stroke-width="1" />
<rect x="770.000000" y="760.000000" width="120.000000" height="80.000000" fill="Moccasin" stroke="dodgerblue" stroke-width="1" />
<rect x="905.000000" y="760.000000" width="120.000000" height="80.000000" fill="Moccasin" stroke="dodgerblue" stroke-width="1" />
<rect x="1040.000000" y="760.000000" width="120.000000" height="80.000000" fill="Moccasin" stroke="dodgerblue" stroke-width="1" />
<rect x="1175.000000" y="760.000000" width="120.000000" height="80.000000" fill="Moccasin" stroke="dodgerblue" stroke-width="1" />
<rect x="1310.000000" y="760.000000" width="120.000000" height="80.000000" fill="Moccasin" stroke="dodgerblue" stroke-width="1" />
<rect x="95.000000" y="855.000000" width="120.000000" height="80.000000" fill="Moccasin" stroke="dodgerblue" stroke-width="1" />
<rect x="230.000000" y="855.000000" width="120.000000" height="80.000000" fill="Moccasin" stroke="dodgerblue" stroke-width="1" />
<rect x="365.000000" y="855.000000" width="120.000000" height="80.000000" fill="Moccasin" stroke="dodgerblue" stroke-width="1" />
<rect x="500.000000" y="855.000000" width="120.000000" height="80.000000" fill="Moccasin" stroke="dodgerblue" stroke-width="1" />
<rect x="635.000000" y="855.000000" width="120.000000" height="80.000000" fill="Moccasin" stroke="dodgerblue" stroke-width="1" />
<rect x="770.000000" y="855.000000" width="120.000000" height="80.000000" fill="Moccasin" stroke="dodgerblue" stroke-width="1" />
<rect x="905.000000" y="855.000000" width="120.000000" height="80.000000" fill="Moccasin" stroke="dodgerblue" stroke-width="1" />
<rect x="1040.000000" y="855.000000" width="120.000000" height="80.000000" fill="Moccasin" stroke="dodgerblue" stroke-width="1" />
<rect x="1175.000000" y="855.000000" width="120.000000" height="80.000000" fill="Moccasin" stroke="dodgerblue" stroke-width="1" />
<rect x="1310.000000" y="855.000000" width="120.000000" height="80.000000" fill="Moccasin" stroke="dodgerblue" stroke-width="1" />
<rect x="95.000000" y="950.000000" width="120.000000" height="80.000000" fill="Moccasin" stroke="dodgerblue" stroke-width="1" />
<rect x="230.000000" y="950.000000" width="120.000000" height="80.000000" fill="Moccasin" stroke="dodgerblue" stroke-width="1" />
<rect x="365.000000" y="950.000000" width="120.000000" height="80.000000" fill="Moccasin" stroke="dodgerblue" stroke-width="1" />
<rect x="500.000000" y="950.000000" width="120.000000" height="80.000000" fill="Moccasin" stroke="dodgerblue" stroke-width="1" />
<rect x="635.000000" y="950.000000" width="120.000000" height="80.000000" fill="Moccasin" stroke="dodgerblue" stroke-width="1" />
<rect x="770.000000" y="950.000000" width="120.000000" height="80.000000" fill="Moccasin" stroke="dodgerblue" stroke-width="1" />
<rect x="905.000000" y="950.000000" width="120.000000" height="80.000000" fill="Moccasin" stroke="dodgerblue" stroke-width="1" />
<rect x="1040.000000" y="950.000000" width="120.000000" height="80.000000" fill="Moccasin" stroke="dodgerblue" stroke-width="1" />
<rect x="1175.000000" y="950.000000" width="120.000000" height="80.000000" fill="Moccasin" stroke="dodgerblue" stroke-width="1" />
<rect x="1310.000000" y="950.000000" width="120.000000" height="80.000000" fill="Moccasin" stroke="dodgerblue" stroke-width="1" />
<line x1="-10.000000" y1="95.000000" x2="6.000000" y2="95.000000" stroke="red" stroke-width="4" />
<line x1="226.250000" y1="186.250000" x2="158.750000" y2="186.250000" stroke="red" stroke-width="4" />
<line x1="361.250000" y1="186.250000" x2="293.750000" y2="186.250000" stroke="red" stroke-width="4" />
<line x1="631.250000" y1="91.250000" x2="631.250000" y2="59.000000" stroke="red" stroke-width="4" />
<line x1="631.250000" y1="91.250000" x2="631.250000" y2="138.750000" stroke="red" stroke-width="4" />
<line x1="631.250000" y1="91.250000" x2="698.750000" y2="91.250000" stroke="red" stroke-width="4" />
<line x1="496.250000" y1="186.250000" x2="428.750000" y2="186.250000" stroke="red" stroke-width="4" />
<line x1="631.250000" y1="186.250000" x2="631.250000" y2="233.750000" stroke="red" stroke-width="4" />
<line x1="631.250000" y1="186.250000" x2="563.750000" y2="186.250000" stroke="red" stroke-width="4" />
<line x1="631.250000" y1="138.750000" x2="631.250000" y2="186.250000" stroke="red" stroke-width="4" />
<line x1="766.250000" y1="186.250000" x2="698.750000" y2="186.250000" stroke="red" stroke-width="4" />
<line x1="901.250000" y1="186.250000" x2="833.750000" y2="186.250000" stroke="red" stroke-width="4" />
<line x1="1036.250000" y1="186.250000" x2="968.750000" y2="186.250000" stroke="red" stroke-width="4" />
<line x1="1306.250000" y1="91.250000" x2="1306.250000" y2="59.000000" stroke="red" stroke-width="4" />
<line x1="1306.250000" y1="91.250000" x2="1373.750000" y2="91.250000" stroke="red" stroke-width="4" />
<line x1="1171.250000" y1="186.250000" x2="1103.750000" y2="186.250000" stroke="red" stroke-width="4" />
<line x1="1306.250000" y1="186.250000" x2="1238.750000" y2="186.250000" stroke="red" stroke-width="4" />
<line x1="1306.250000" y1="186.250000" x2="1306.250000" y2="138.750000" stroke="red" stroke-width="4" />
<line x1="1306.250000" y1="138.750000" x2="1306.250000" y2="91.250000" stroke="red" stroke-width="4" />
<line x1="1441.250000" y1="186.250000" x2="1373.750000" y2="186.250000" stroke="red" stroke-width="4" />
<line x1="158.750000" y1="186.250000" x2="91.250000" y2="186.250000" stroke="red" stroke-width="4" />
<line x1="293.750000" y1="186.250000" x2="226.250000" y2="186.250000" stroke="red" stroke-width="4" />
<line x1="428.750000" y1="186.250000" x2="361.250000" y2="186.250000" stroke="red" stroke-width="4" />
<line x1="563.750000" y1="186.250000" x2="496.250000" y2="186.250000" stroke="red" stroke-width="4" />
<line x1="698.750000" y1="186.250000" x2="631.250000" y2="186.250000" stroke="red" stroke-width="4" />
<line x1="631.250000" y1="281.250000" x2="631.250000" y2="328.750000" stroke="red" stroke-width="4" />
<line x1="631.250000" y1="281.250000" x2="698.750000" y2="281.250000" stroke="red" stroke-width="4" />
<line x1="631.250000" y1="233.750000" x2="631.250000" y2="281.250000" stroke="red" stroke-width="4" />
<line x1="833.750000" y1="186.250000" x2="766.250000" y2="186.250000" stroke="red" stroke-width="4" />
<line x1="968.750000" y1="186.250000" x2="901.250000" y2="186.250000" stroke="red" stroke-width="4" />
<line x1="1103.750000" y1="186.250000" x2="1036.250000" y2="186.250000" stroke="red" stroke-width="4" />
<line x1="1238.750000" y1="186.250000" x2="1171.250000" y2="186.250000" stroke="red" stroke-width="4" />
<line x1="1373.750000" y1="186.250000" x2="1306.250000" y2="186.250000" stroke="red" stroke-width="4" />
<line x1="1306.250000" y1="281.250000" x2="1373.750000" y2="281.250000" stroke="red" stroke-width="4" />
<line x1="1306.250000" y1="281.250000" x2="1306.250000" y2="233.750000" stroke="red" stroke-width="4" />
<line x1="1306.250000" y1="233.750000" x2="1306.250000" y2="186.250000" stroke="red" stroke-width="4" />
<line x1="631.250000" y1="376.250000" x2="631.250000" y2="423.750000" stroke="red" stroke-width="4" />
<line x1="631.250000" y1="376.250000" x2="563.750000" y2="376.250000" stroke="red" stroke-width="4" />
<line x1="631.250000" y1="328.750000" x2="631.250000" y2="376.250000" stroke="red" stroke-width="4" />
<line x1="1306.250000" y1="376.250000" x2="1238.750000" y2="376.250000" stroke="red" stroke-width="4" />
<line x1="1306.250000" y1="376.250000" x2="1306.250000" y2="328.750000" stroke="red" stroke-width="4" />
<line x1="1306.250000" y1="328.750000" x2="1306.250000" y2="281.250000" stroke="red" stroke-width="4" />
<line x1="563.750000" y1="376.250000" x2="496.250000" y2="376.250000" stroke="red" stroke-width="4" />
<line x1="631.250000" y1="471.250000" x2="631.250000" y2="518.750000" stroke="red" stroke-width="4" />
<line x1="631.250000" y1="471.250000" x2="698.750000" y2="471.250000" stroke="red" stroke-width="4" />
<line x1="631.250000" y1="423.750000" x2="631.250000" y2="471.250000" stroke="red" stroke-width="4" />
<line x1="1103.750000" y1="376.250000" x2="1036.250000" y2="376.250000" stroke="red" stroke-width="4" />
<line x1="1306.250000" y1="471.250000" x2="1373.750000" y2="471.250000" stroke="red" stroke-width="4" />
<line x1="1306.250000" y1="471.250000" x2="1306.250000" y2="423.750000" stroke="red" stroke-width="4" />
<line x1="1306.250000" y1="423.750000" x2="1306.250000" y2="376.250000" stroke="red" stroke-width="4" />
<line x1="361.250000" y1="566.250000" x2="361.250000" y2="613.750000" stroke="red" stroke-width="4" />
<line x1="361.250000" y1="566.250000" x2="293.750000" y2="566.250000" stroke="red" stroke-width="4" />
<line x1="563.750000" y1="471.250000" x2="631.250000" y2="471.250000" stroke="red" stroke-width="4" />
<line x1="631.250000" y1="518.750000" x2="631.250000" y2="566.250000" stroke="red" stroke-width="4" />
<line x1="1103.750000" y1="471.250000" x2="1171.250000" y2="471.250000" stroke="red" stroke-width="4" />
<line x1="1306.250000" y1="518.750000" x2="1306.250000" y2="471.250000" stroke="red" stroke-width="4" />
<line x1="293.750000" y1="566.250000" x2="226.250000" y2="566.250000" stroke="red" stroke-width="4" />
<line x1="361.250000" y1="661.250000" x2="361.250000" y2="708.750000" stroke="red" stroke-width="4" />
<line x1="361.250000" y1="661.250000" x2="428.750000" y2="661.250000" stroke="red" stroke-width="4" />
<line x1="361.250000" y1="613.750000" x2="361.250000" y2="661.250000" stroke="red" stroke-width="4" />
<line x1="563.750000" y1="566.250000" x2="496.250000" y2="566.250000" stroke="red" stroke-width="4" />
<line x1="968.750000" y1="566.250000" x2="901.250000" y2="566.250000" stroke="red" stroke-width="4" />
<line x1="1103.750000" y1="566.250000" x2="1036.250000" y2="566.250000" stroke="red" stroke-width="4" />
<line x1="293.750000" y1="661.250000" x2="361.250000" y2="661.250000" stroke="red" stroke-width="4" />
<line x1="226.250000" y1="756.250000" x2="158.750000" y2="756.250000" stroke="red" stroke-width="4" />
<line x1="361.250000" y1="756.250000" x2="361.250000" y2="803.750000" stroke="red" stroke-width="4" />
<line x1="361.250000" y1="756.250000" x2="293.750000" y2="756.250000" stroke="red" stroke-width="4" />
<line x1="361.250000" y1="708.750000" x2="361.250000" y2="756.250000" stroke="red" stroke-width="4" />
<line x1="563.750000" y1="661.250000" x2="631.250000" y2="661.250000" stroke="red" stroke-width="4" />
<line x1="496.250000" y1="756.250000" x2="428.750000" y2="756.250000" stroke="red" stroke-width="4" />
<line x1="631.250000" y1="756.250000" x2="563.750000" y2="756.250000" stroke="red" stroke-width="4" />
<line x1="766.250000" y1="756.250000" x2="698.750000" y2="756.250000" stroke="red" stroke-width="4" />
<line x1="968.750000" y1="661.250000" x2="1036.250000" y2="661.250000" stroke="red" stroke-width="4" />
<line x1="901.250000" y1="756.250000" x2="833.750000" y2="756.250000" stroke="red" stroke-width="4" />
<line x1="1103.750000" y1="661.250000" x2="1171.250000" y2="661.250000" stroke="red" stroke-width="4" />
<line x1="1036.250000" y1="756.250000" x2="968.750000" y2="756.250000" stroke="red" stroke-width="4" />
<line x1="1171.250000" y1="756.250000" x2="1103.750000" y2="756.250000" stroke="red" stroke-width="4" />
<line x1="1306.250000" y1="756.250000" x2="1238.750000" y2="756.250000" stroke="red" stroke-width="4" />
<line x1="1441.250000" y1="756.250000" x2="1373.750000" y2="756.250000" stroke="red" stroke-width="4" />
<line x1="158.750000" y1="756.250000" x2="91.250000" y2="756.250000" stroke="red" stroke-width="4" />
<line x1="293.750000" y1="756.250000" x2="226.250000" y2="756.250000" stroke="red" stroke-width="4" />
<line x1="428.750000" y1="756.250000" x2="361.250000" y2="756.250000" stroke="red" stroke-width="4" />
<line x1="361.250000" y1="851.250000" x2="361.250000" y2="898.750000" stroke="red" stroke-width="4" />
<line x1="361.250000" y1="851.250000" x2="428.750000" y2="851.250000" stroke="red" stroke-width="4" />
<line x1="361.250000" y1="803.750000" x2="361.250000" y2="851.250000" stroke="red" stroke-width="4" />
<line x1="563.750000" y1="756.250000" x2="496.250000" y2="756.250000" stroke="red" stroke-width="4" />
<line x1="698.750000" y1="756.250000" x2="631.250000" y2="756.250000" stroke="red" stroke-width="4" />
<line x1="833.750000" y1="756.250000" x2="766.250000" y2="756.250000" stroke="red" stroke-width="4" />
<line x1="968.750000" y1="756.250000" x2="901.250000" y2="756.250000" stroke="red" stroke-width="4" />
<line x1="1103.750000" y1="756.250000" x2="1036.250000" y2="756.250000" stroke="red" stroke-width="4" />
<line x1="1238.750000" y1="756.250000" x2="1171.250000" y2="756.250000" stroke="red" stroke-width="4" />
<line x1="1373.750000" y1="756.250000" x2="1306.250000" y2="756.250000" stroke="red" stroke-width="4" />
<line x1="293.750000" y1="851.250000" x2="361.250000" y2="851.250000" stroke="red" stroke-width="4" />
<line x1="361.250000" y1="946.250000" x2="361.250000" y2="990.000000" stroke="red" stroke-width="4" />
<line x1="361.250000" y1="946.250000" x2="293.750000" y2="946.250000" stroke="red" stroke-width="4" />
<line x1="361.250000" y1="898.750000" x2="361.250000" y2="946.250000" stroke="red" stroke-width="4" />
<line x1="968.750000" y1="851.250000" x2="1036.250000" y2="851.250000" stroke="red" stroke-width="4" />
<line x1="293.750000" y1="946.250000" x2="226.250000" y2="946.250000" stroke="red" stroke-width="4" />
<line x1="361.250000" y1="1033.750000" x2="361.250000" y2="1061.000000" stroke="red" stroke-width="4" />
<line x1="361.250000" y1="1033.750000" x2="428.750000" y2="1033.750000" stroke="red" stroke-width="4" />
<line x1="293.750000" y1="1033.750000" x2="293.750000" y2="1061.000000" stroke="red" stroke-width="4" />
<line x1="293.750000" y1="1033.750000" x2="361.250000" y2="1033.750000" stroke="red" stroke-width="4" />
<line x1="361.250000" y1="990.000000" x2="361.250000" y2="1033.750000" stroke="red" stroke-width="4" />
<line x1="968.750000" y1="946.250000" x2="901.250000" y2="946.250000" stroke="red" stroke-width="4" />
<line x1="968.750000" y1="1033.750000" x2="968.750000" y2="1061.000000" stroke="red" stroke-width="4" />
<line x1="968.750000" y1="1033.750000" x2="1036.250000" y2="1033.750000" stroke="red" stroke-width="4" />
<line x1="631.250000" y1="59.000000" x2="698.750000" y2="59.000000" stroke="red" stroke-width="4" />
<line x1="631.250000" y1="59.000000" x2="631.250000" y2="91.250000" stroke="red" stroke-width="4" />
<line x1="1306.250000" y1="59.000000" x2="1373.750000" y2="59.000000" stroke="red" stroke-width="4" />
<line x1="1306.250000" y1="59.000000" x2="1306.250000" y2="91.250000" stroke="red" stroke-width="4" />
<line x1="293.750000" y1="1061.000000" x2="226.250000" y2="1061.000000" stroke="red" stroke-width="4" />
<line x1="293.750000" y1="1061.000000" x2="293.750000" y2="1033.750000" stroke="red" stroke-width="4" />
<line x1="361.250000" y1="1061.000000" x2="293.750000" y2="1061.000000" stroke="red" stroke-width="4" />
<line x1="361.250000" y1="1061.000000" x2="361.250000" y2="1033.750000" stroke="red" stroke-width="4" />
<line x1="968.750000" y1="1061.000000" x2="901.250000" y2="1061.000000" stroke="red" stroke-width="4" />
<line x1="968.750000" y1="1061.000000" x2="968.750000" y2="1033.750000" stroke="red" stroke-width="4" />
<line x1="6.000000" y1="95.000000" x2="6.000000" y2="1045.000000" stroke="red" stroke-width="4" />
<line x1="6.000000" y1="95.000000" x2="-10.000000" y2="95.000000" stroke="red" stroke-width="4" />
<line x1="0.000000" y1="47.500000" x2="47.500000" y2="95.000000" stroke="red" stroke-width="4" />
<line x1="47.500000" y1="95.000000" x2="6.000000" y2="95.000000" stroke="red" stroke-width="4" />
<line x1="47.500000" y1="95.000000" x2="95.000000" y2="47.500000" stroke="red" stroke-width="4" />
<line x1="47.500000" y1="0.000000" x2="0.000000" y2="47.500000" stroke="red" stroke-width="4" />
<line x1="95.000000" y1="0" x2="95.000000" y2="313.000000" stroke="red" stroke-width="1" stroke-dasharray="6,4" />
<text x="95.000000" y="14" fill="red" font-size="11" text-anchor="middle">R1</text>
<line x1="1330.000000" y1="0" x2="1330.000000" y2="950.000000" stroke="red" stroke-width="1" stroke-dasharray="6,4" />
<text x="1330.000000" y="14" fill="red" font-size="11" text-anchor="middle">R2</text>
<path id="routeDistancia" d="M 91.25,328.75 L 91.25,376.25 L 91.25,423.75 L 91.25,471.25 L 91.25,518.75 L 91.25,566.25 L 91.25,613.75 L 91.25,661.25 L 91.25,708.75 L 91.25,756.25 L 91.25,803.75 L 91.25,851.25 L 91.25,898.75 L 91.25,946.25 L 91.25,990.00 L 91.25,1033.75 L 158.75,1033.75 L 226.25,1033.75 L 293.75,1033.75 L 361.25,1033.75 L 428.75,1033.75 L 496.25,1033.75 L 563.75,1033.75 L 631.25,1033.75 L 698.75,1033.75 L 766.25,1033.75 L 833.75,1033.75 L 901.25,1033.75 L 968.75,1033.75 L 1036.25,1033.75 L 1103.75,1033.75 L 1171.25,1033.75 L 1238.75,1033.75 L 1306.25,1033.75 L 1306.25,990.00 L 1306.25,946.25" fill="none" stroke="#ff6600" stroke-width="3" stroke-linecap="round" stroke-linejoin="round"/>
<circle r="8" fill="yellow" stroke="white" stroke-width="2">
  <animateMotion dur="10.0s" repeatCount="indefinite" calcMode="linear" rotate="auto">
    <mpath xlink:href="#routeDistancia"/>
  </animateMotion>
</circle>
<path id="routeTempo" d="M 91.25,328.75 L 59.00,328.75 L 59.00,281.25 L 59.00,233.75 L 59.00,186.25 L 59.00,138.75 L 59.00,91.25 L 91.25,91.25 L 91.25,59.00 L 158.75,59.00 L 226.25,59.00 L 293.75,59.00 L 361.25,59.00 L 428.75,59.00 L 496.25,59.00 L 563.75,59.00 L 631.25,59.00 L 698.75,59.00 L 766.25,59.00 L 833.75,59.00 L 901.25,59.00 L 968.75,59.00 L 1036.25,59.00 L 1103.75,59.00 L 1171.25,59.00 L 1238.75,59.00 L 1306.25,59.00 L 1373.75,59.00 L 1441.25,59.00 L 1441.25,91.25 L 1441.25,138.75 L 1441.25,186.25 L 1441.25,233.75 L 1441.25,281.25 L 1441.25,328.75 L 1441.25,376.25 L 1441.25,423.75 L 1441.25,471.25 L 1441.25,518.75 L 1441.25,566.25 L 1441.25,613.75 L 1441.25,661.25 L 1441.25,708.75 L 1441.25,756.25 L 1441.25,803.75 L 1441.25,851.25 L 1441.25,898.75 L 1441.25,946.25 L 1441.25,990.00 L 1441.25,1033.75 L 1441.25,1061.00 L 1373.75,1061.00 L 1306.25,1061.00 L 1306.25,1033.75 L 1306.25,990.00 L 1306.25,946.25" fill="none" stroke="blue" stroke-width="3" stroke-linecap="round" stroke-linejoin="round"/>
<circle r="8" fill="cyan" stroke="white" stroke-width="2">
  <animateMotion dur="10.0s" repeatCount="indefinite" calcMode="linear" rotate="auto">
    <mpath xlink:href="#routeTempo"/>
  </animateMotion>
</circle>
<circle cx="91.250000" cy="328.750000" r="10" fill="#66ff00" stroke="white" stroke-width="1.5" />
<text x="91.250000" y="328.750000" fill="white" font-size="11" font-weight="bold" text-anchor="middle" dominant-baseline="middle">I</text>
<circle cx="1306.250000" cy="946.250000" r="10" fill="#66ff00" stroke="white" stroke-width="1.5" />
<text x="1306.250000" y="946.250000" fill="white" font-size="11" font-weight="bold" text-anchor="middle" dominant-baseline="middle">F</text>
</svg>
