<svg xmlns:svg="http://www.w3.org/2000/svg" xmlns="http://www.w3.org/2000/svg" xmlns:xlink="http://www.w3.org/1999/xlink" version="1.1" width="12000" height="5000">
<rect x="95.000000" y="95.000000" width="120.000000" height="80.000000" fill="Moccasin" stroke="dodgerblue" stroke-width="1" />
<rect x="230.000000" y="95.000000" width="120.000000" height="80.000000" fill="Moccasin" stroke="dodgerblue" stroke-width="1" />
<rect x="365.000000" y="95.000000" width="120.000000" height="80.000000" fill="Moccasin" stroke="dodgerblue" stroke-width="1" />
<rect x="500.000000" y="95.000000" width="120.000000" height="80.000000" fill="Moccasin" stroke="dodgerblue" stroke-width="1" />
<rect x="635.000000" y="95.000000" width="120.000000" height="80.000000" fill="Moccasin" stroke="dodgerblue" stroke-width="1" />
<rect x="770.000000" y="95.000000" width="120.000000" height="80.000000" fill="Moccasin" stroke="dodgerblue" stroke-width="1" />
<rect x="905.000000" y="95.000000" width="120.000000" height="80.000000" fill="Moccasin" stroke="dodgerblue" stroke-width="1" />
<rect x="1040.000000" y="95.000000" width="120.000000" height="80.000000" fill="Moccasin" stroke="dodgerblue" stroke-width="1" />
<rect x="1175.000000" y="95.000000" width="120.000000" height="80.000000" fill="Moccasin" stroke="dodgerblue" stroke-width="1" />
<rect x="1310.000000" y="95.000000" width="120.000000" height="80.000000" fill="Moccasin" stroke="dodgerblue" stroke-width="1" />
<rect x="95.000000" y="190.000000" width="120.000000" height="80.000000" fill="Moccasin" stroke="dodgerblue" stroke-width="1" />
<rect x="230.000000" y="190.000000" width="120.000000" height="80.000000" fill="Moccasin" stroke="dodgerblue" stroke-width="1" />
<rect x="365.000000" y="190.000000" width="120.000000" height="80.000000" fill="Moccasin" stroke="dodgerblue" stroke-width="1" />
<rect x="500.000000" y="190.000000" width="120.000000" height="80.000000" fill="Moccasin" stroke="dodgerblue" stroke-width="1" />
<rect x="635.000000" y="190.000000" width="120.000000" height="80.000000" fill="Moccasin" stroke="dodgerblue" stroke-width="1" />
<rect x="770.000000" y="190.000000" width="120.000000" height="80.000000" fill="Moccasin" stroke="dodgerblue" stroke-width="1" />
<rect x="905.000000" y="190.000000" width="120.000000" height="80.000000" fill="Moccasin" stroke="dodgerblue" stroke-width="1" />
<rect x="1040.000000" y="190.000000" width="120.000000" height="80.000000" fill="Moccasin" stroke="dodgerblue" stroke-width="1" />
<rect x="1175.000000" y="190.000000" width="120.000000" height="80.000000" fill="Moccasin" stroke="dodgerblue" stroke-width="1" />
<rect x="1310.000000" y="190.000000" width="120.000000" height="80.000000" fill="Moccasin" stroke="dodgerblue" stroke-width="1" />
<rect x="95.000000" y="285.000000" width="120.000000" height="80.000000" fill="Moccasin" stroke="dodgerblue" stroke-width="1" />
<rect x="230.000000" y="285.000000" width="120.000000" height="80.000000" fill="Moccasin" stroke="dodgerblue" stroke-width="1" />
<rect x="365.000000" y="285.000000" width="120.000000" height="80.000000" fill="Moccasin" stroke="dodgerblue" stroke-width="1" />
<rect x="500.000000" y="285.000000" width="120.000000" height="80.000000" fill="Moccasin" stroke="dodgerblue" stroke-width="1" />
<rect x="635.000000" y="285.000000" width="120.000000" height="80.000000" fill="Moccasin" stroke="dodgerblue" stroke-width="1" />
<rect x="770.000000" y="285.000000" width="120.000000" height="80.000000" fill="Moccasin" stroke="dodgerblue" stroke-width="1" />
<rect x="905.000000" y="285.000000" width="120.000000" height="80.000000" fill="Moccasin" stroke="dodgerblue" stroke-width="1" />
<rect x="1040.000000" y="285.000000" width="120.000000" height="80.000000" fill="Moccasin" stroke="dodgerblue" stroke-width="1" />
<rect x="1175.000000" y="285.000000" width="120.000000" height="80.000000" fill="Moccasin" stroke="dodgerblue" stroke-width="1" />
<rect x="1310.000000" y="285.000000" width="120.000000" height="80.000000" fill="Moccasin" stroke="dodgerblue" stroke-width="1" />
<rect x="95.000000" y="380.000000" width="120.000000" height="80.000000" fill="Moccasin" stroke="dodgerblue" stroke-width="1" />
<rect x="230.000000" y="380.000000" width="120.000000" height="80.000000" fill="Moccasin" stroke="dodgerblue" stroke-width="1" />
<rect x="365.000000" y="380.000000" width="120.000000" height="80.000000" fill="Moccasin" stroke="dodgerblue" stroke-width="1" />
<rect x="500.000000" y="380.000000" width="120.000000" height="80.000000" fill="Moccasin" stroke="dodgerblue" stroke-width="1" />
<rect x="635.000000" y="380.000000" width="120.000000" height="80.000000" fill="Moccasin" stroke="dodgerblue" stroke-width="1" />
<rect x="770.000000" y="380.000000" width="120.000000" height="80.000000" fill="Moccasin" stroke="dodgerblue" stroke-width="1" />
<rect x="905.000000" y="380.000000" width="120.000000" height="80.000000" fill="Moccasin" stroke="dodgerblue" stroke-width="1" />
<rect x="1040.000000" y="380.000000" width="120.000000" height="80.000000" fill="Moccasin" stroke="dodgerblue" stroke-width="1" />
<rect x="1175.000000" y="380.000000" width="120.000000" height="80.000000" fill="Moccasin" stroke="dodgerblue" stroke-width="1" />
<rect x="1310.000000" y="380.000000" width="120.000000" height="80.000000" fill="Moccasin" stroke="dodgerblue" stroke-width="1" />
<rect x="95.000000" y="475.000000" width="120.000000" height="80.000000" fill="Moccasin" stroke="dodgerblue" stroke-width="1" />
<rect x="230.000000" y="475.000000" width="120.000000" height="80.000000" fill="Moccasin" stroke="dodgerblue" stroke-width="1" />
<rect x="365.000000" y="475.000000" width="120.000000" height="80.000000" fill="Moccasin" stroke="dodgerblue" stroke-width="1" />
<rect x="500.000000" y="475.000000" width="120.000000" height="80.000000" fill="Moccasin" stroke="dodgerblue" stroke-width="1" />
<rect x="635.000000" y="475.000000" width="120.000000" height="80.000000" fill="Moccasin" stroke="dodgerblue" stroke-width="1" />
<rect x="770.000000" y="475.000000" width="120.000000" height="80.000000" fill="Moccasin" stroke="dodgerblue" stroke-width="1" />
<rect x="905.000000" y="475.000000" width="120.000000" height="80.000000" fill="Moccasin" stroke="dodgerblue" stroke-width="1" />
<rect x="1040.000000" y="475.000000" width="120.000000" height="80.000000" fill="Moccasin" stroke="dodgerblue" stroke-width="1" />
<rect x="1175.000000" y="475.000000" width="120.000000" height="80.000000" fill="Moccasin" stroke="dodgerblue" stroke-width="1" />
<rect x="1310.000000" y="475.000000" width="120.000000" height="80.000000" fill="Moccasin" stroke="dodgerblue" stroke-width="1" />
<rect x="95.000000" y="570.000000" width="120.000000" height="80.000000" fill="Moccasin" stroke="dodgerblue" stroke-width="1" />
<rect x="230.000000" y="570.000000" width="120.000000" height="80.000000" fill="Moccasin" stroke="dodgerblue" stroke-width="1" />
<rect x="365.000000" y="570.000000" width="120.000000" height="80.000000" fill="Moccasin" stroke="dodgerblue" stroke-width="1" />
<rect x="500.000000" y="570.000000" width="120.000000" height="80.000000" fill="Moccasin" stroke="dodgerblue" stroke-width="1" />
<rect x="635.000000" y="570.000000" width="120.000000" height="80.000000" fill="Moccasin" stroke="dodgerblue" stroke-width="1" />
<rect x="770.000000" y="570.000000" width="120.000000" height="80.000000" fill="Moccasin" stroke="dodgerblue" stroke-width="1" />
<rect x="905.000000" y="570.000000" width="120.000000" height="80.000000" fill="Moccasin" stroke="dodgerblue" stroke-width="1" />
<rect x="1040.000000" y="570.000000" width="120.000000" height="80.000000" fill="Moccasin" stroke="dodgerblue" stroke-width="1" />
<rect x="1175.000000" y="570.000000" width="120.000000" height="80.000000" fill="Moccasin" stroke="dodgerblue" stroke-width="1" />
<rect x="1310.000000" y="570.000000" width="120.000000" height="80.000000" fill="Moccasin" stroke="dodgerblue" stroke-width="1" />
<rect x="95.000000" y="665.000000" width="120.000000" height="80.000000" fill="Moccasin" stroke="dodgerblue" stroke-width="1" />
<rect x="230.000000" y="665.000000" width="120.000000" height="80.000000" fill="Moccasin" stroke="dodgerblue" stroke-width="1" />
<rect x="365.000000" y="665.000000" width="120.000000" height="80.000000" fill="Moccasin" stroke="dodgerblue" stroke-width="1" />
<rect x="500.000000" y="665.000000" width="120.000000" height="80.000000" fill="Moccasin" stroke="dodgerblue" stroke-width="1" />
<rect x="635.000000" y="665.000000" width="120.000000" height="80.000000" fill="Moccasin" stroke="dodgerblue" stroke-width="1" />
<rect x="770.000000" y="665.000000" width="120.000000" height="80.000000" fill="Moccasin" stroke="dodgerblue" stroke-width="1" />
<rect x="905.000000" y="665.000000" width="120.000000" height="80.000000" fill="Moccasin" stroke="dodgerblue" stroke-width="1" />
<rect x="1040.000000" y="665.000000" width="120.000000" height="80.000000" fill="Moccasin" stroke="dodgerblue" stroke-width="1" />
<rect x="1175.000000" y="665.000000" width="120.000000" height="80.000000" fill="Moccasin" stroke="dodgerblue" stroke-width="1" />
<rect x="1310.000000" y="665.000000" width="120.000000" height="80.000000" fill="Moccasin" stroke="dodgerblue" stroke-width="1" />
<rect x="95.000000" y="760.000000" width="120.000000" height="80.000000" fill="Moccasin" stroke="dodgerblue" stroke-width="1" />
<rect x="230.000000" y="760.000000" width="120.000000" height="80.000000" fill="Moccasin" stroke="dodgerblue" stroke-width="1" />
<rect x="365.000000" y="760.000000" width="120.000000" height="80.000000" fill="Moccasin" stroke="dodgerblue" stroke-width="1" />
<rect x="500.000000" y="760.000000" width="120.000000" height="80.000000" fill="Moccasin" stroke="dodgerblue" stroke-width="1" />
<rect x="635.000000" y="760.000000" width="120.000000" height="80.000000" fill="Moccasin" stroke="dodgerblue" stroke-width="1" />
<rect x="770.000000" y="760.000000" width="120.000000" height="80.000000" fill="Moccasin" stroke="dodgerblue" stroke-width="1" />
<rect x="905.000000" y="760.000000" width="120.000000" height="80.000000" fill="Moccasin" stroke="dodgerblue" stroke-width="1" />
<rect x="1040.000000" y="760.000000" width="120.000000" height="80.000000" fill="Moccasin" stroke="dodgerblue" stroke-width="1" />
<rect x="1175.000000" y="760.000000" width="120.000000" height="80.000000" fill="Moccasin" stroke="dodgerblue" stroke-width="1" />
<rect x="1310.000000" y="760.000000" width="120.000000" height="80.000000" fill="Moccasin" stroke="dodgerblue" stroke-width="1" />
<rect x="95.000000" y="855.000000" width="120.000000" height="80.000000" fill="Moccasin" stroke="dodgerblue" stroke-width="1" />
<rect x="230.000000" y="855.000000" width="120.000000" height="80.000000" fill="Moccasin" stroke="dodgerblue" stroke-width="1" />
<rect x="365.000000" y="855.000000" width="120.000000" height="80.000000" fill="Moccasin" stroke="dodgerblue" stroke-width="1" />
<rect x="500.000000" y="855.000000" width="120.000000" height="80.000000" fill="Moccasin" stroke="dodgerblue" stroke-width="1" />
<rect x="635.000000" y="855.000000" width="120.000000" height="80.000000" fill="Moccasin" stroke="dodgerblue" stroke-width="1" />
<rect x="770.000000" y="855.000000" width="120.000000" height="80.000000" fill="Moccasin" stroke="dodgerblue" stroke-width="1" />
<rect x="905.000000" y="855.000000" width="120.000000" height="80.000000" fill="Moccasin" stroke="dodgerblue" stroke-width="1" />
<rect x="1040.000000" y="855.000000" width="120.000000" height="80.000000" fill="Moccasin" stroke="dodgerblue" stroke-width="1" />
<rect x="1175.000000" y="855.000000" width="120.000000" height="80.000000" fill="Moccasin" stroke="dodgerblue" stroke-width="1" />
<rect x="1310.000000" y="855.000000" width="120.000000" height="80.000000" fill="Moccasin" stroke="dodgerblue" stroke-width="1" />
<rect x="95.000000" y="950.000000" width="120.000000" height="80.000000" fill="Moccasin" stroke="dodgerblue" stroke-width="1" />
<rect x="230.000000" y="950.000000" width="120.000000" height="80.000000" fill="Moccasin" stroke="dodgerblue" stroke-width="1" />
<rect x="365.000000" y="950.000000" width="120.000000" height="80.000000" fill="Moccasin" stroke="dodgerblue" stroke-width="1" />
<rect x="500.000000" y="950.000000" width="120.000000" height="80.000000" fill="Moccasin" stroke="dodgerblue" stroke-width="1" />
<rect x="635.000000" y="950.000000" width="120.000000" height="80.000000" fill="Moccasin" stroke="dodgerblue" stroke-width="1" />
<rect x="770.000000" y="950.000000" width="120.000000" height="80.000000" fill="Moccasin" stroke="dodgerblue" stroke-width="1" />
<rect x="905.000000" y="950.000000" width="120.000000" height="80.000000" fill="Moccasin" stroke="dodgerblue" stroke-width="1" />
<rect x="1040.000000" y="950.000000" width="120.000000" height="80.000000" fill="Moccasin" stroke="dodgerblue" stroke-width="1" />
<rect x="1175.000000" y="950.000000" width="120.000000" height="80.000000" fill="Moccasin" stroke="dodgerblue" stroke-width="1" />
<rect x="1310.000000" y="950.000000" width="120.000000" height="80.000000" fill="Moccasin" stroke="dodgerblue" stroke-width="1" />
<rect x="91.250000" y="371.250000" width="1350.000000" height="10.000000" fill="green" fill-opacity="0.5" stroke="green" stroke-width="1" />
<rect x="91.250000" y="846.250000" width="1350.000000" height="10.000000" fill="blue" fill-opacity="0.5" stroke="blue" stroke-width="1" />
<rect x="86.250000" y="91.250000" width="10.000000" height="942.500000" fill="orange" fill-opacity="0.5" stroke="orange" stroke-width="1" />
<rect x="626.250000" y="91.250000" width="10.000000" height="942.500000" fill="purple" fill-opacity="0.5" stroke="purple" stroke-width="1" />
<rect x="1031.250000" y="91.250000" width="10.000000" height="942.500000" fill="cyan" fill-opacity="0.5" stroke="cyan" stroke-width="1" />
<rect x="0.000000" y="0.000000" width="95.000000" height="95.000000" fill="magenta" fill-opacity="0.5" stroke="magenta" stroke-width="1" />
<rect x="91.250000" y="6.000000" width="1448.750000" height="53.000000" fill="red" fill-opacity="0.5" stroke="red" stroke-width="1" />
<rect x="6.000000" y="91.250000" width="53.000000" height="1021.250000" fill="green" fill-opacity="0.5" stroke="green" stroke-width="1" />
<line x1="1160.000000" y1="0" x2="1160.000000" y2="1002.000000" stroke="red" stroke-width="1" stroke-dasharray="6,4" />
<text x="1160.000000" y="14" fill="red" font-size="11" text-anchor="middle">R1</text>
<line x1="95.000000" y1="0" x2="95.000000" y2="359.000000" stroke="red" stroke-width="1" stroke-dasharray="6,4" />
<text x="95.000000" y="14" fill="red" font-size="11" text-anchor="middle">R2</text>
<path id="routeDistancia" d="M 1171.25,990.00 L 1171.25,1033.75 L 1171.25,1061.00 L 1103.75,1061.00 L 1036.25,1061.00 L 1036.25,1033.75 L 1036.25,990.00 L 1036.25,946.25 L 1036.25,898.75 L 1036.25,851.25 L 1036.25,803.75 L 1036.25,756.25 L 1036.25,708.75 L 1036.25,661.25 L 1036.25,613.75 L 1036.25,566.25 L 1036.25,518.75 L 1036.25,471.25 L 1036.25,423.75 L 1036.25,376.25 L 968.75,376.25 L 901.25,376.25 L 833.75,376.25 L 766.25,376.25 L 698.75,376.25 L 631.25,376.25 L 563.75,376.25 L 496.25,376.25 L 428.75,376.25 L 361.25,376.25 L 293.75,376.25 L 226.25,376.25 L 158.75,376.25 L 91.25,376.25" fill="none" stroke="#ff6600" stroke-width="3" stroke-linecap="round" stroke-linejoin="round"/>
<circle r="8" fill="yellow" stroke="white" stroke-width="2">
  <animateMotion dur="10.0s" repeatCount="indefinite" calcMode="linear" rotate="auto">
    <mpath xlink:href="#routeDistancia"/>
  </animateMotion>
</circle>
<path id="routeTempo" d="M 1171.25,990.00 L 1171.25,1033.75 L 1171.25,1061.00 L 1103.75,1061.00 L 1036.25,1061.00 L 968.75,1061.00 L 901.25,1061.00 L 833.75,1061.00 L 766.25,1061.00 L 698.75,1061.00 L 631.25,1061.00 L 563.75,1061.00 L 496.25,1061.00 L 428.75,1061.00 L 361.25,1061.00 L 293.75,1061.00 L 226.25,1061.00 L 226.25,1033.75 L 226.25,990.00 L 226.25,946.25 L 226.25,898.75 L 226.25,851.25 L 226.25,803.75 L 226.25,756.25 L 226.25,708.75 L 226.25,661.25 L 226.25,613.75 L 226.25,566.25 L 226.25,518.75 L 226.25,471.25 L 226.25,423.75 L 226.25,376.25 L 158.75,376.25 L 91.25,376.25" fill="none" stroke="#66ff00" stroke-width="3" stroke-linecap="round" stroke-linejoin="round"/>
<circle r="8" fill="cyan" stroke="white" stroke-width="2">
  <animateMotion dur="10.0s" repeatCount="indefinite" calcMode="linear" rotate="auto">
    <mpath xlink:href="#routeTempo"/>
  </animateMotion>
</circle>
<circle cx="1171.250000" cy="990.000000" r="10" fill="#66ff00" stroke="white" stroke-width="1.5" />
<text x="1171.250000" y="990.000000" fill="white" font-size="11" font-weight="bold" text-anchor="middle" dominant-baseline="middle">I</text>
<circle cx="91.250000" cy="376.250000" r="10" fill="#66ff00" stroke="white" stroke-width="1.5" />
<text x="91.250000" y="376.250000" fill="white" font-size="11" font-weight="bold" text-anchor="middle" dominant-baseline="middle">F</text>
</svg>
