<svg xmlns:svg="http://www.w3.org/2000/svg" xmlns="http://www.w3.org/2000/svg" xmlns:xlink="http://www.w3.org/1999/xlink" version="1.1" width="12000" height="5000">
<rect x="95.000000" y="95.000000" width="120.000000" height="80.000000" fill="Moccasin" stroke="dodgerblue" stroke-width="1" />
<rect x="230.000000" y="95.000000" width="120.000000" height="80.000000" fill="Moccasin" stroke="dodgerblue" stroke-width="1" />
<rect x="365.000000" y="95.000000" width="120.000000" height="80.000000" fill="Moccasin" stroke="dodgerblue" stroke-width="1" />
<rect x="500.000000" y="95.000000" width="120.000000" height="80.000000" fill="Moccasin" stroke="dodgerblue" stroke-width="1" />
<rect x="635.000000" y="95.000000" width="120.000000" height="80.000000" fill="Moccasin" stroke="dodgerblue" stroke-width="1" />
<rect x="770.000000" y="95.000000" width="120.000000" height="80.000000" fill="Moccasin" stroke="dodgerblue" stroke-width="1" />
<rect x="905.000000" y="95.000000" width="120.000000" height="80.000000" fill="Moccasin" stroke="dodgerblue" stroke-width="1" />
<rect x="1040.000000" y="95.000000" width="120.000000" height="80.000000" fill="Moccasin" stroke="dodgerblue" stroke-width="1" />
<rect x="1175.000000" y="95.000000" width="120.000000" height="80.000000" fill="Moccasin" stroke="dodgerblue" stroke-width="1" />
<rect x="1310.000000" y="95.000000" width="120.000000" height="80.000000" fill="Moccasin" stroke="dodgerblue" stroke-width="1" />
<rect x="95.000000" y="190.000000" width="120.000000" height="80.000000" fill="Moccasin" stroke="dodgerblue" stroke-width="1" />
<rect x="230.000000" y="190.000000" width="120.000000" height="80.000000" fill="Moccasin" stroke="dodgerblue" stroke-width="1" />
<rect x="365.000000" y="190.000000" width="120.000000" height="80.000000" fill="Moccasin" stroke="dodgerblue" stroke-width="1" />
<rect x="500.000000" y="190.000000" width="120.000000" height="80.000000" fill="Moccasin" stroke="dodgerblue" stroke-width="1" />
<rect x="635.000000" y="190.000000" width="120.000000" height="80.000000" fill="Moccasin" stroke="dodgerblue" stroke-width="1" />
<rect x="770.000000" y="190.000000" width="120.000000" height="80.000000" fill="Moccasin" stroke="dodgerblue" stroke-width="1" />
<rect x="905.000000" y="190.000000" width="120.000000" height="80.000000" fill="Moccasin" stroke="dodgerblue" stroke-width="1" />
<rect x="1040.000000" y="190.000000" width="120.000000" height="80.000000" fill="Moccasin" stroke="dodgerblue" stroke-width="1" />
<rect x="1175.000000" y="190.000000" width="120.000000" height="80.000000" fill="Moccasin" stroke="dodgerblue" stroke-width="1" />
<rect x="1310.000000" y="190.000000" width="120.000000" height="80.000000" fill="Moccasin" stroke="dodgerblue" stroke-width="1" />
<rect x="95.000000" y="285.000000" width="120.000000" height="80.000000" fill="Moccasin" stroke="dodgerblue" stroke-width="1" />
<rect x="230.000000" y="285.000000" width="120.000000" height="80.000000" fill="Moccasin" stroke="dodgerblue" stroke-width="1" />
<rect x="365.000000" y="285.000000" width="120.000000" height="80.000000" fill="Moccasin" stroke="dodgerblue" stroke-width="1" />
<rect x="500.000000" y="285.000000" width="120.000000" height="80.000000" fill="Moccasin" stroke="dodgerblue" stroke-width="1" />
<rect x="635.000000" y="285.000000" width="120.000000" height="80.000000" fill="Moccasin" stroke="dodgerblue" stroke-width="1" />
<rect x="770.000000" y="285.000000" width="120.000000" height="80.000000" fill="Moccasin" stroke="dodgerblue" stroke-width="1" />
<rect x="905.000000" y="285.000000" width="120.000000" height="80.000000" fill="Moccasin" stroke="dodgerblue" stroke-width="1" />
<rect x="1040.000000" y="285.000000" width="120.000000" height="80.000000" fill="Moccasin" stroke="dodgerblue" stroke-width="1" />
<rect x="1175.000000" y="285.000000" width="120.000000" height="80.000000" fill="Moccasin" stroke="dodgerblue" stroke-width="1" />
<rect x="1310.000000" y="285.000000" width="120.000000" height="80.000000" fill="Moccasin" stroke="dodgerblue" stroke-width="1" />
<rect x="95.000000" y="380.000000" width="120.000000" height="80.000000" fill="Moccasin" stroke="dodgerblue" stroke-width="1" />
<rect x="230.000000" y="380.000000" width="120.000000" height="80.000000" fill="Moccasin" stroke="dodgerblue" stroke-width="1" />
<rect x="365.000000" y="380.000000" width="120.000000" height="80.000000" fill="Moccasin" stroke="dodgerblue" stroke-width="1" />
<rect x="500.000000" y="380.000000" width="120.000000" height="80.000000" fill="Moccasin" stroke="dodgerblue" stroke-width="1" />
<rect x="635.000000" y="380.000000" width="120.000000" height="80.000000" fill="Moccasin" stroke="dodgerblue" stroke-width="1" />
<rect x="770.000000" y="380.000000" width="120.000000" height="80.000000" fill="Moccasin" stroke="dodgerblue" stroke-width="1" />
<rect x="905.000000" y="380.000000" width="120.000000" height="80.000000" fill="Moccasin" stroke="dodgerblue" stroke-width="1" />
<rect x="1040.000000" y="380.000000" width="120.000000" height="80.000000" fill="Moccasin" stroke="dodgerblue" stroke-width="1" />
<rect x="1175.000000" y="380.000000" width="120.000000" height="80.000000" fill="Moccasin" stroke="dodgerblue" stroke-width="1" />
<rect x="1310.000000" y="380.000000" width="120.000000" height="80.000000" fill="Moccasin" stroke="dodgerblue" stroke-width="1" />
<rect x="95.000000" y="475.000000" width="120.000000" height="80.000000" fill="Moccasin" stroke="dodgerblue" stroke-width="1" />
<rect x="230.000000" y="475.000000" width="120.000000" height="80.000000" fill="Moccasin" stroke="dodgerblue" stroke-width="1" />
<rect x="365.000000" y="475.000000" width="120.000000" height="80.000000" fill="Moccasin" stroke="dodgerblue" stroke-width="1" />
<rect x="500.000000" y="475.000000" width="120.000000" height="80.000000" fill="Moccasin" stroke="dodgerblue" stroke-width="1" />
<rect x="635.000000" y="475.000000" width="120.000000" height="80.000000" fill="Moccasin" stroke="dodgerblue" stroke-width="1" />
<rect x="770.000000" y="475.000000" width="120.000000" height="80.000000" fill="Moccasin" stroke="dodgerblue" stroke-width="1" />
<rect x="905.000000" y="475.000000" width="120.000000" height="80.000000" fill="Moccasin" stroke="dodgerblue" stroke-width="1" />
<rect x="1040.000000" y="475.000000" width="120.000000" height="80.000000" fill="Moccasin" stroke="dodgerblue" stroke-width="1" />
<rect x="1175.000000" y="475.000000" width="120.000000" height="80.000000" fill="Moccasin" stroke="dodgerblue" stroke-width="1" />
<rect x="1310.000000" y="475.000000" width="120.000000" height="80.000000" fill="Moccasin" stroke="dodgerblue" stroke-width="1" />
<rect x="95.000000" y="570.000000" width="120.000000" height="80.000000" fill="Moccasin" stroke="dodgerblue" stroke-width="1" />
<rect x="230.000000" y="570.000000" width="120.000000" height="80.000000" fill="Moccasin" stroke="dodgerblue" stroke-width="1" />
<rect x="365.000000" y="570.000000" width="120.000000" height="80.000000" fill="Moccasin" stroke="dodgerblue" stroke-width="1" />
<rect x="500.000000" y="570.000000" width="120.000000" height="80.000000" fill="Moccasin" stroke="dodgerblue" stroke-width="1" />
<rect x="635.000000" y="570.000000" width="120.000000" height="80.000000" fill="Moccasin" stroke="dodgerblue" stroke-width="1" />
<rect x="770.000000" y="570.000000" width="120.000000" height="80.000000" fill="Moccasin" stroke="dodgerblue" stroke-width="1" />
<rect x="905.000000" y="570.000000" width="120.000000" height="80.000000" fill="Moccasin" stroke="dodgerblue" stroke-width="1" />
<rect x="1040.000000" y="570.000000" width="120.000000" height="80.000000" fill="Moccasin" stroke="dodgerblue" stroke-width="1" />
<rect x="1175.000000" y="570.000000" width="120.000000" height="80.000000" fill="Moccasin" stroke="dodgerblue" stroke-width="1" />
<rect x="1310.000000" y="570.000000" width="120.000000" height="80.000000" fill="Moccasin" stroke="dodgerblue" stroke-width="1" />
<rect x="95.000000" y="665.000000" width="120.000000" height="80.000000" fill="Moccasin" stroke="dodgerblue" stroke-width="1" />
<rect x="230.000000" y="665.000000" width="120.000000" height="80.000000" fill="Moccasin" stroke="dodgerblue" stroke-width="1" />
<rect x="365.000000" y="665.000000" width="120.000000" height="80.000000" fill="Moccasin" stroke="dodgerblue" stroke-width="1" />
<rect x="500.000000" y="665.000000" width="120.000000" height="80.000000" fill="Moccasin" stroke="dodgerblue" stroke-width="1" />
<rect x="635.000000" y="665.000000" width="120.000000" height="80.000000" fill="Moccasin" stroke="dodgerblue" stroke-width="1" />
<rect x="770.000000" y="665.000000" width="120.000000" height="80.000000" fill="Moccasin" stroke="dodgerblue" stroke-width="1" />
<rect x="905.000000" y="665.000000" width="120.000000" height="80.000000" fill="Moccasin" stroke="dodgerblue" stroke-width="1" />
<rect x="1040.000000" y="665.000000" width="120.000000" height="80.000000" fill="Moccasin" stroke="dodgerblue" stroke-width="1" />
<rect x="1175.000000" y="665.000000" width="120.000000" height="80.000000" fill="Moccasin" stroke="dodgerblue" stroke-width="1" />
<rect x="1310.000000" y="665.000000" width="120.000000" height="80.000000" fill="Moccasin" stroke="dodgerblue" stroke-width="1" />
<rect x="95.000000" y="760.000000" width="120.000000" height="80.000000" fill="Moccasin" stroke="dodgerblue" stroke-width="1" />
<rect x="230.000000" y="760.000000" width="120.000000" height="80.000000" fill="Moccasin" stroke="dodgerblue" stroke-width="1" />
<rect x="365.000000" y="760.000000" width="120.000000" height="80.000000" fill="Moccasin" stroke="dodgerblue" stroke-width="1" />
<rect x="500.000000" y="760.000000" width="120.000000" height="80.000000" fill="Moccasin" stroke="dodgerblue" stroke-width="1" />
<rect x="635.000000" y="760.000000" width="120.000000" height="80.000000" fill="Moccasin" stroke="dodgerblue" stroke-width="1" />
<rect x="770.000000" y="760.000000" width="120.000000" height="80.000000" fill="Moccasin" stroke="dodgerblue" stroke-width="1" />
<rect x="905.000000" y="760.000000" width="120.000000" height="80.000000" fill="Moccasin" stroke="dodgerblue" stroke-width="1" />
<rect x="1040.000000" y="760.000000" width="120.000000" height="80.000000" fill="Moccasin" stroke="dodgerblue" stroke-width="1" />
<rect x="1175.000000" y="760.000000" width="120.000000" height="80.000000" fill="Moccasin" stroke="dodgerblue" stroke-width="1" />
<rect x="1310.000000" y="760.000000" width="120.000000" height="80.000000" fill="Moccasin" stroke="dodgerblue" stroke-width="1" />
<rect x="95.000000" y="855.000000" width="120.000000" height="80.000000" fill="Moccasin" stroke="dodgerblue" stroke-width="1" />
<rect x="230.000000" y="855.000000" width="120.000000" height="80.000000" fill="Moccasin" stroke="dodgerblue" stroke-width="1" />
<rect x="365.000000" y="855.000000" width="120.000000" height="80.000000" fill="Moccasin" stroke="dodgerblue" stroke-width="1" />
<rect x="500.000000" y="855.000000" width="120.000000" height="80.000000" fill="Moccasin" stroke="dodgerblue" stroke-width="1" />
<rect x="635.000000" y="855.000000" width="120.000000" height="80.000000" fill="Moccasin" stroke="dodgerblue" stroke-width="1" />
<rect x="770.000000" y="855.000000" width="120.000000" height="80.000000" fill="Moccasin" stroke="dodgerblue" stroke-width="1" />
<rect x="905.000000" y="855.000000" width="120.000000" height="80.000000" fill="Moccasin" stroke="dodgerblue" stroke-width="1" />
<rect x="1040.000000" y="855.000000" width="120.000000" height="80.000000" fill="Moccasin" stroke="dodgerblue" stroke-width="1" />
<rect x="1175.000000" y="855.000000" width="120.000000" height="80.000000" fill="Moccasin" stroke="dodgerblue" stroke-width="1" />
<rect x="1310.000000" y="855.000000" width="120.000000" height="80.000000" fill="Moccasin" stroke="dodgerblue" stroke-width="1" />
<rect x="95.000000" y="950.000000" width="120.000000" height="80.000000" fill="Moccasin" stroke="dodgerblue" stroke-width="1" />
<rect x="230.000000" y="950.000000" width="120.000000" height="80.000000" fill="Moccasin" stroke="dodgerblue" stroke-width="1" />
<rect x="365.000000" y="950.000000" width="120.000000" height="80.000000" fill="Moccasin" stroke="dodgerblue" stroke-width="1" />
<rect x="500.000000" y="950.000000" width="120.000000" height="80.000000" fill="Moccasin" stroke="dodgerblue" stroke-width="1" />
<rect x="635.000000" y="950.000000" width="120.000000" height="80.000000" fill="Moccasin" stroke="dodgerblue" stroke-width="1" />
<rect x="770.000000" y="950.000000" width="120.000000" height="80.000000" fill="Moccasin" stroke="dodgerblue" stroke-width="1" />
<rect x="905.000000" y="950.000000" width="120.000000" height="80.000000" fill="Moccasin" stroke="dodgerblue" stroke-width="1" />
<rect x="1040.000000" y="950.000000" width="120.000000" height="80.000000" fill="Moccasin" stroke="dodgerblue" stroke-width="1" />
<rect x="1175.000000" y="950.000000" width="120.000000" height="80.000000" fill="Moccasin" stroke="dodgerblue" stroke-width="1" />
<rect x="1310.000000" y="950.000000" width="120.000000" height="80.000000" fill="Moccasin" stroke="dodgerblue" stroke-width="1" />
<rect x="91.250000" y="371.250000" width="1350.000000" height="10.000000" fill="green" fill-opacity="0.5" stroke="green" stroke-width="1" />
<rect x="91.250000" y="846.250000" width="1350.000000" height="10.000000" fill="blue" fill-opacity="0.5" stroke="blue" stroke-width="1" />
<rect x="86.250000" y="91.250000" width="10.000000" height="942.500000" fill="orange" fill-opacity="0.5" stroke="orange" stroke-width="1" />
<rect x="626.250000" y="91.250000" width="10.000000" height="942.500000" fill="purple" fill-opacity="0.5" stroke="purple" stroke-width="1" />
<rect x="1031.250000" y="91.250000" width="10.000000" height="942.500000" fill="cyan" fill-opacity="0.5" stroke="cyan" stroke-width="1" />
<rect x="0.000000" y="0.000000" width="95.000000" height="95.000000" fill="magenta" fill-opacity="0.5" stroke="magenta" stroke-width="1" />
<rect x="91.250000" y="6.000000" width="1448.750000" height="53.000000" fill="red" fill-opacity="0.5" stroke="red" stroke-width="1" />
<rect x="6.000000" y="91.250000" width="53.000000" height="1021.250000" fill="green" fill-opacity="0.5" stroke="green" stroke-width="1" />
</svg>
