<svg xmlns:svg="http://www.w3.org/2000/svg" xmlns="http://www.w3.org/2000/svg" xmlns:xlink="http://www.w3.org/1999/xlink" version="1.1" width="12000" height="5000">
<rect x="95.000000" y="95.000000" width="120.000000" height="80.000000" fill="Moccasin" stroke="dodgerblue" stroke-width="1" />
<rect x="230.000000" y="95.000000" width="120.000000" height="80.000000" fill="Moccasin" stroke="dodgerblue" stroke-width="1" />
<rect x="365.000000" y="95.000000" width="120.000000" height="80.000000" fill="Moccasin" stroke="dodgerblue" stroke-width="1" />
<rect x="500.000000" y="95.000000" width="120.000000" height="80.000000" fill="Moccasin" stroke="dodgerblue" stroke-width="1" />
<rect x="635.000000" y="95.000000" width="120.000000" height="80.000000" fill="Moccasin" stroke="dodgerblue" stroke-width="1" />
<rect x="770.000000" y="95.000000" width="120.000000" height="80.000000" fill="Moccasin" stroke="dodgerblue" stroke-width="1" />
<rect x="905.000000" y="95.000000" width="120.000000" height="80.000000" fill="Moccasin" stroke="dodgerblue" stroke-width="1" />
<rect x="1040.000000" y="95.000000" width="120.000000" height="80.000000" fill="Moccasin" stroke="dodgerblue" stroke-width="1" />
<rect x="1175.000000" y="95.000000" width="120.000000" height="80.000000" fill="Moccasin" stroke="dodgerblue" stroke-width="1" />
<rect x="1310.000000" y="95.000000" width="120.000000" height="80.000000" fill="Moccasin" stroke="dodgerblue" stroke-width="1" />
<rect x="95.000000" y="190.000000" width="120.000000" height="80.000000" fill="Moccasin" stroke="dodgerblue" stroke-width="1" />
<rect x="230.000000" y="190.000000" width="120.000000" height="80.000000" fill="Moccasin" stroke="dodgerblue" stroke-width="1" />
<rect x="365.000000" y="190.000000" width="120.000000" height="80.000000" fill="Moccasin" stroke="dodgerblue" stroke-width="1" />
<rect x="500.000000" y="190.000000" width="120.000000" height="80.000000" fill="Moccasin" stroke="dodgerblue" stroke-width="1" />
<rect x="635.000000" y="190.000000" width="120.000000" height="80.000000" fill="Moccasin" stroke="dodgerblue" stroke-width="1" />
<rect x="770.000000" y="190.000000" width="120.000000" height="80.000000" fill="Moccasin" stroke="dodgerblue" stroke-width="1" />
<rect x="905.000000" y="190.000000" width="120.000000" height="80.000000" fill="Moccasin" stroke="dodgerblue" stroke-width="1" />
<rect x="1040.000000" y="190.000000" width="120.000000" height="80.000000" fill="Moccasin" stroke="dodgerblue" stroke-width="1" />
<rect x="1175.000000" y="190.000000" width="120.000000" height="80.000000" fill="Moccasin" stroke="dodgerblue" stroke-width="1" />
<rect x="1310.000000" y="190.000000" width="120.000000" height="80.000000" fill="Moccasin" stroke="dodgerblue" stroke-width="1" />
<rect x="95.000000" y="285.000000" width="120.000000" height="80.000000" fill="Moccasin" stroke="dodgerblue" stroke-width="1" />
<rect x="230.000000" y="285.000000" width="120.000000" height="80.000000" fill="Moccasin" stroke="dodgerblue" stroke-width="1" />
<rect x="365.000000" y="285.000000" width="120.000000" height="80.000000" fill="Moccasin" stroke="dodgerblue" stroke-width="1" />
<rect x="500.000000" y="285.000000" width="120.000000" height="80.000000" fill="Moccasin" stroke="dodgerblue" stroke-width="1" />
<rect x="635.000000" y="285.000000" width="120.000000" height="80.000000" fill="Moccasin" stroke="dodgerblue" stroke-width="1" />
<rect x="770.000000" y="285.000000" width="120.000000" height="80.000000" fill="Moccasin" stroke="dodgerblue" stroke-width="1" />
<rect x="905.000000" y="285.000000" width="120.000000" height="80.000000" fill="Moccasin" stroke="dodgerblue" stroke-width="1" />
<rect x="1040.000000" y="285.000000" width="120.000000" height="80.000000" fill="Moccasin" stroke="dodgerblue" stroke-width="1" />
<rect x="1175.000000" y="285.000000" width="120.000000" height="80.000000" fill="Moccasin" stroke="dodgerblue" stroke-width="1" />
<rect x="1310.000000" y="285.000000" width="120.000000" height="80.000000" fill="Moccasin" stroke="dodgerblue" stroke-width="1" />
<rect x="95.000000" y="380.000000" width="120.000000" height="80.000000" fill="Moccasin" stroke="dodgerblue" stroke-width="1" />
<rect x="230.000000" y="380.000000" width="120.000000" height="80.000000" fill="Moccasin" stroke="dodgerblue" stroke-width="1" />
<rect x="365.000000" y="380.000000" width="120.000000" height="80.000000" fill="Moccasin" stroke="dodgerblue" stroke-width="1" />
<rect x="500.000000" y="380.000000" width="120.000000" height="80.000000" fill="Moccasin" stroke="dodgerblue" stroke-width="1" />
<rect x="635.000000" y="380.000000" width="120.000000" height="80.000000" fill="Moccasin" stroke="dodgerblue" stroke-width="1" />
<rect x="770.000000" y="380.000000" width="120.000000" height="80.000000" fill="Moccasin" stroke="dodgerblue" stroke-width="1" />
<rect x="905.000000" y="380.000000" width="120.000000" height="80.000000" fill="Moccasin" stroke="dodgerblue" stroke-width="1" />
<rect x="1040.000000" y="380.000000" width="120.000000" height="80.000000" fill="Moccasin" stroke="dodgerblue" stroke-width="1" />
<rect x="1175.000000" y="380.000000" width="120.000000" height="80.000000" fill="Moccasin" stroke="dodgerblue" stroke-width="1" />
<rect x="1310.000000" y="380.000000" width="120.000000" height="80.000000" fill="Moccasin" stroke="dodgerblue" stroke-width="1" />
<rect x="95.000000" y="475.000000" width="120.000000" height="80.000000" fill="Moccasin" stroke="dodgerblue" stroke-width="1" />
<rect x="230.000000" y="475.000000" width="120.000000" height="80.000000" fill="Moccasin" stroke="dodgerblue" stroke-width="1" />
<rect x="365.000000" y="475.000000" width="120.000000" height="80.000000" fill="Moccasin" stroke="dodgerblue" stroke-width="1" />
<rect x="500.000000" y="475.000000" width="120.000000" height="80.000000" fill="Moccasin" stroke="dodgerblue" stroke-width="1" />
<rect x="635.000000" y="475.000000" width="120.000000" height="80.000000" fill="Moccasin" stroke="dodgerblue" stroke-width="1" />
<rect x="770.000000" y="475.000000" width="120.000000" height="80.000000" fill="Moccasin" stroke="dodgerblue" stroke-width="1" />
<rect x="905.000000" y="475.000000" width="120.000000" height="80.000000" fill="Moccasin" stroke="dodgerblue" stroke-width="1" />
<rect x="1040.000000" y="475.000000" width="120.000000" height="80.000000" fill="Moccasin" stroke="dodgerblue" stroke-width="1" />
<rect x="1175.000000" y="475.000000" width="120.000000" height="80.000000" fill="Moccasin" stroke="dodgerblue" stroke-width="1" />
<rect x="1310.000000" y="475.000000" width="120.000000" height="80.000000" fill="Moccasin" stroke="dodgerblue" stroke-width="1" />
<rect x="95.000000" y="570.000000" width="120.000000" height="80.000000" fill="Moccasin" stroke="dodgerblue" stroke-width="1" />
<rect x="230.000000" y="570.000000" width="120.000000" height="80.000000" fill="Moccasin" stroke="dodgerblue" stroke-width="1" />
<rect x="365.000000" y="570.000000" width="120.000000" height="80.000000" fill="Moccasin" stroke="dodgerblue" stroke-width="1" />
<rect x="500.000000" y="570.000000" width="120.000000" height="80.000000" fill="Moccasin" stroke="dodgerblue" stroke-width="1" />
<rect x="635.000000" y="570.000000" width="120.000000" height="80.000000" fill="Moccasin" stroke="dodgerblue" stroke-width="1" />
<rect x="770.000000" y="570.000000" width="120.000000" height="80.000000" fill="Moccasin" stroke="dodgerblue" stroke-width="1" />
<rect x="905.000000" y="570.000000" width="120.000000" height="80.000000" fill="Moccasin" stroke="dodgerblue" stroke-width="1" />
<rect x="1040.000000" y="570.000000" width="120.000000" height="80.000000" fill="Moccasin" stroke="dodgerblue" stroke-width="1" />
<rect x="1175.000000" y="570.000000" width="120.000000" height="80.000000" fill="Moccasin" stroke="dodgerblue" stroke-width="1" />
<rect x="1310.000000" y="570.000000" width="120.000000" height="80.000000" fill="Moccasin" stroke="dodgerblue" stroke-width="1" />
<rect x="95.000000" y="665.000000" width="120.000000" height="80.000000" fill="Moccasin" stroke="dodgerblue" stroke-width="1" />
<rect x="230.000000" y="665.000000" width="120.000000" height="80.000000" fill="Moccasin" stroke="dodgerblue" stroke-width="1" />
<rect x="365.000000" y="665.000000" width="120.000000" height="80.000000" fill="Moccasin" stroke="dodgerblue" stroke-width="1" />
<rect x="500.000000" y="665.000000" width="120.000000" height="80.000000" fill="Moccasin" stroke="dodgerblue" stroke-width="1" />
<rect x="635.000000" y="665.000000" width="120.000000" height="80.000000" fill="Moccasin" stroke="dodgerblue" stroke-width="1" />
<rect x="770.000000" y="665.000000" width="120.000000" height="80.000000" fill="Moccasin" stroke="dodgerblue" stroke-width="1" />
<rect x="905.000000" y="665.000000" width="120.000000" height="80.000000" fill="Moccasin" stroke="dodgerblue" stroke-width="1" />
<rect x="1040.000000" y="665.000000" width="120.000000" height="80.000000" fill="Moccasin" stroke="dodgerblue" stroke-width="1" />
<rect x="1175.000000" y="665.000000" width="120.000000" height="80.000000" fill="Moccasin" stroke="dodgerblue" stroke-width="1" />
<rect x="1310.000000" y="665.000000" width="120.000000" height="80.000000" fill="Moccasin" stroke="dodgerblue" stroke-width="1" />
<rect x="95.000000" y="760.000000" width="120.000000" height="80.000000" fill="Moccasin" stroke="dodgerblue" stroke-width="1" />
<rect x="230.000000" y="760.000000" width="120.000000" height="80.000000" fill="Moccasin" stroke="dodgerblue" stroke-width="1" />
<rect x="365.000000" y="760.000000" width="120.000000" height="80.000000" fill="Moccasin" stroke="dodgerblue" stroke-width="1" />
<rect x="500.000000" y="760.000000" width="120.000000" height="80.000000" fill="Moccasin" stroke="dodgerblue" stroke-width="1" />
<rect x="635.000000" y="760.000000" width="120.000000" height="80.000000" fill="Moccasin" stroke="dodgerblue" stroke-width="1" />
<rect x="770.000000" y="760.000000" width="120.000000" height="80.000000" fill="Moccasin" stroke="dodgerblue" stroke-width="1" />
<rect x="905.000000" y="760.000000" width="120.000000" height="80.000000" fill="Moccasin" stroke="dodgerblue" stroke-width="1" />
<rect x="1040.000000" y="760.000000" width="120.000000" height="80.000000" fill="Moccasin" stroke="dodgerblue" stroke-width="1" />
<rect x="1175.000000" y="760.000000" width="120.000000" height="80.000000" fill="Moccasin" stroke="dodgerblue" stroke-width="1" />
<rect x="1310.000000" y="760.000000" width="120.000000" height="80.000000" fill="Moccasin" stroke="dodgerblue" stroke-width="1" />
<rect x="95.000000" y="855.000000" width="120.000000" height="80.000000" fill="Moccasin" stroke="dodgerblue" stroke-width="1" />
<rect x="230.000000" y="855.000000" width="120.000000" height="80.000000" fill="Moccasin" stroke="dodgerblue" stroke-width="1" />
<rect x="365.000000" y="855.000000" width="120.000000" height="80.000000" fill="Moccasin" stroke="dodgerblue" stroke-width="1" />
<rect x="500.000000" y="855.000000" width="120.000000" height="80.000000" fill="Moccasin" stroke="dodgerblue" stroke-width="1" />
<rect x="635.000000" y="855.000000" width="120.000000" height="80.000000" fill="Moccasin" stroke="dodgerblue" stroke-width="1" />
<rect x="770.000000" y="855.000000" width="120.000000" height="80.000000" fill="Moccasin" stroke="dodgerblue" stroke-width="1" />
<rect x="905.000000" y="855.000000" width="120.000000" height="80.000000" fill="Moccasin" stroke="dodgerblue" stroke-width="1" />
<rect x="1040.000000" y="855.000000" width="120.000000" height="80.000000" fill="Moccasin" stroke="dodgerblue" stroke-width="1" />
<rect x="1175.000000" y="855.000000" width="120.000000" height="80.000000" fill="Moccasin" stroke="dodgerblue" stroke-width="1" />
<rect x="1310.000000" y="855.000000" width="120.000000" height="80.000000" fill="Moccasin" stroke="dodgerblue" stroke-width="1" />
<rect x="95.000000" y="950.000000" width="120.000000" height="80.000000" fill="Moccasin" stroke="dodgerblue" stroke-width="1" />
<rect x="230.000000" y="950.000000" width="120.000000" height="80.000000" fill="Moccasin" stroke="dodgerblue" stroke-width="1" />
<rect x="365.000000" y="950.000000" width="120.000000" height="80.000000" fill="Moccasin" stroke="dodgerblue" stroke-width="1" />
<rect x="500.000000" y="950.000000" width="120.000000" height="80.000000" fill="Moccasin" stroke="dodgerblue" stroke-width="1" />
<rect x="635.000000" y="950.000000" width="120.000000" height="80.000000" fill="Moccasin" stroke="dodgerblue" stroke-width="1" />
<rect x="770.000000" y="950.000000" width="120.000000" height="80.000000" fill="Moccasin" stroke="dodgerblue" stroke-width="1" />
<rect x="905.000000" y="950.000000" width="120.000000" height="80.000000" fill="Moccasin" stroke="dodgerblue" stroke-width="1" />
<rect x="1040.000000" y="950.000000" width="120.000000" height="80.000000" fill="Moccasin" stroke="dodgerblue" stroke-width="1" />
<rect x="1175.000000" y="950.000000" width="120.000000" height="80.000000" fill="Moccasin" stroke="dodgerblue" stroke-width="1" />
<rect x="1310.000000" y="950.000000" width="120.000000" height="80.000000" fill="Moccasin" stroke="dodgerblue" stroke-width="1" />
<rect x="91.250000" y="371.250000" width="1350.000000" height="10.000000" fill="green" fill-opacity="0.5" stroke="green" stroke-width="1" />
<rect x="91.250000" y="846.250000" width="1350.000000" height="10.000000" fill="blue" fill-opacity="0.5" stroke="blue" stroke-width="1" />
<rect x="86.250000" y="91.250000" width="10.000000" height="942.500000" fill="orange" fill-opacity="0.5" stroke="orange" stroke-width="1" />
<rect x="626.250000" y="91.250000" width="10.000000" height="942.500000" fill="purple" fill-opacity="0.5" stroke="purple" stroke-width="1" />
<rect x="1031.250000" y="91.250000" width="10.000000" height="942.500000" fill="cyan" fill-opacity="0.5" stroke="cyan" stroke-width="1" />
<rect x="0.000000" y="0.000000" width="95.000000" height="95.000000" fill="magenta" fill-opacity="0.5" stroke="magenta" stroke-width="1" />
<rect x="91.250000" y="6.000000" width="1448.750000" height="53.000000" fill="red" fill-opacity="0.5" stroke="red" stroke-width="1" />
<rect x="6.000000" y="91.250000" width="53.000000" height="1021.250000" fill="green" fill-opacity="0.5" stroke="green" stroke-width="1" />
<line x1="95.000000" y1="-10.000000" x2="95.000000" y2="6.000000" stroke="red" stroke-width="4" />
<line x1="1445.000000" y1="-10.000000" x2="1445.000000" y2="6.000000" stroke="red" stroke-width="4" />
<line x1="95.000000" y1="1140.000000" x2="95.000000" y2="1114.000000" stroke="red" stroke-width="4" />
<line x1="-10.000000" y1="95.000000" x2="6.000000" y2="95.000000" stroke="red" stroke-width="4" />
<line x1="-10.000000" y1="1045.000000" x2="6.000000" y2="1045.000000" stroke="red" stroke-width="4" />
<line x1="91.250000" y1="91.250000" x2="59.000000" y2="91.250000" stroke="red" stroke-width="4" />
<line x1="91.250000" y1="91.250000" x2="91.250000" y2="59.000000" stroke="red" stroke-width="4" />
<line x1="91.250000" y1="91.250000" x2="91.250000" y2="138.750000" stroke="red" stroke-width="4" />
<line x1="91.250000" y1="186.250000" x2="59.000000" y2="186.250000" stroke="red" stroke-width="4" />
<line x1="91.250000" y1="186.250000" x2="91.250000" y2="233.750000" stroke="red" stroke-width="4" />
<line x1="91.250000" y1="138.750000" x2="59.000000" y2="138.750000" stroke="red" stroke-width="4" />
<line x1="91.250000" y1="138.750000" x2="91.250000" y2="186.250000" stroke="red" stroke-width="4" />
<line x1="631.250000" y1="91.250000" x2="631.250000" y2="59.000000" stroke="red" stroke-width="4" />
<line x1="631.250000" y1="91.250000" x2="631.250000" y2="138.750000" stroke="red" stroke-width="4" />
<line x1="563.750000" y1="91.250000" x2="563.750000" y2="59.000000" stroke="red" stroke-width="4" />
<line x1="631.250000" y1="186.250000" x2="631.250000" y2="233.750000" stroke="red" stroke-width="4" />
<line x1="631.250000" y1="138.750000" x2="631.250000" y2="186.250000" stroke="red" stroke-width="4" />
<line x1="1036.250000" y1="91.250000" x2="1036.250000" y2="59.000000" stroke="red" stroke-width="4" />
<line x1="1103.750000" y1="91.250000" x2="1103.750000" y2="59.000000" stroke="red" stroke-width="4" />
<line x1="1036.250000" y1="186.250000" x2="1036.250000" y2="138.750000" stroke="red" stroke-width="4" />
<line x1="1036.250000" y1="138.750000" x2="1036.250000" y2="91.250000" stroke="red" stroke-width="4" />
<line x1="91.250000" y1="281.250000" x2="59.000000" y2="281.250000" stroke="red" stroke-width="4" />
<line x1="91.250000" y1="281.250000" x2="91.250000" y2="328.750000" stroke="red" stroke-width="4" />
<line x1="91.250000" y1="233.750000" x2="59.000000" y2="233.750000" stroke="red" stroke-width="4" />
<line x1="91.250000" y1="233.750000" x2="91.250000" y2="281.250000" stroke="red" stroke-width="4" />
<line x1="631.250000" y1="281.250000" x2="631.250000" y2="328.750000" stroke="red" stroke-width="4" />
<line x1="631.250000" y1="233.750000" x2="631.250000" y2="281.250000" stroke="red" stroke-width="4" />
<line x1="1036.250000" y1="281.250000" x2="1036.250000" y2="233.750000" stroke="red" stroke-width="4" />
<line x1="1036.250000" y1="233.750000" x2="1036.250000" y2="186.250000" stroke="red" stroke-width="4" />
<line x1="91.250000" y1="376.250000" x2="59.000000" y2="376.250000" stroke="red" stroke-width="4" />
<line x1="91.250000" y1="376.250000" x2="91.250000" y2="423.750000" stroke="red" stroke-width="4" />
<line x1="91.250000" y1="328.750000" x2="59.000000" y2="328.750000" stroke="red" stroke-width="4" />
<line x1="91.250000" y1="328.750000" x2="91.250000" y2="376.250000" stroke="red" stroke-width="4" />
<line x1="226.250000" y1="376.250000" x2="158.750000" y2="376.250000" stroke="red" stroke-width="4" />
<line x1="361.250000" y1="376.250000" x2="293.750000" y2="376.250000" stroke="red" stroke-width="4" />
<line x1="496.250000" y1="376.250000" x2="428.750000" y2="376.250000" stroke="red" stroke-width="4" />
<line x1="631.250000" y1="376.250000" x2="631.250000" y2="423.750000" stroke="red" stroke-width="4" />
<line x1="631.250000" y1="376.250000" x2="563.750000" y2="376.250000" stroke="red" stroke-width="4" />
<line x1="631.250000" y1="328.750000" x2="631.250000" y2="376.250000" stroke="red" stroke-width="4" />
<line x1="766.250000" y1="376.250000" x2="698.750000" y2="376.250000" stroke="red" stroke-width="4" />
<line x1="901.250000" y1="376.250000" x2="833.750000" y2="376.250000" stroke="red" stroke-width="4" />
<line x1="1036.250000" y1="376.250000" x2="968.750000" y2="376.250000" stroke="red" stroke-width="4" />
<line x1="1036.250000" y1="376.250000" x2="1036.250000" y2="328.750000" stroke="red" stroke-width="4" />
<line x1="1036.250000" y1="328.750000" x2="1036.250000" y2="281.250000" stroke="red" stroke-width="4" />
<line x1="1171.250000" y1="376.250000" x2="1103.750000" y2="376.250000" stroke="red" stroke-width="4" />
<line x1="1306.250000" y1="376.250000" x2="1238.750000" y2="376.250000" stroke="red" stroke-width="4" />
<line x1="1441.250000" y1="376.250000" x2="1373.750000" y2="376.250000" stroke="red" stroke-width="4" />
<line x1="158.750000" y1="376.250000" x2="91.250000" y2="376.250000" stroke="red" stroke-width="4" />
<line x1="91.250000" y1="471.250000" x2="59.000000" y2="471.250000" stroke="red" stroke-width="4" />
<line x1="91.250000" y1="471.250000" x2="91.250000" y2="518.750000" stroke="red" stroke-width="4" />
<line x1="91.250000" y1="423.750000" x2="59.000000" y2="423.750000" stroke="red" stroke-width="4" />
<line x1="91.250000" y1="423.750000" x2="91.250000" y2="471.250000" stroke="red" stroke-width="4" />
<line x1="293.750000" y1="376.250000" x2="226.250000" y2="376.250000" stroke="red" stroke-width="4" />
<line x1="428.750000" y1="376.250000" x2="361.250000" y2="376.250000" stroke="red" stroke-width="4" />
<line x1="563.750000" y1="376.250000" x2="496.250000" y2="376.250000" stroke="red" stroke-width="4" />
<line x1="698.750000" y1="376.250000" x2="631.250000" y2="376.250000" stroke="red" stroke-width="4" />
<line x1="631.250000" y1="471.250000" x2="631.250000" y2="518.750000" stroke="red" stroke-width="4" />
<line x1="631.250000" y1="423.750000" x2="631.250000" y2="471.250000" stroke="red" stroke-width="4" />
<line x1="833.750000" y1="376.250000" x2="766.250000" y2="376.250000" stroke="red" stroke-width="4" />
<line x1="968.750000" y1="376.250000" x2="901.250000" y2="376.250000" stroke="red" stroke-width="4" />
<line x1="1103.750000" y1="376.250000" x2="1036.250000" y2="376.250000" stroke="red" stroke-width="4" />
<line x1="1036.250000" y1="471.250000" x2="1036.250000" y2="423.750000" stroke="red" stroke-width="4" />
<line x1="1036.250000" y1="423.750000" x2="1036.250000" y2="376.250000" stroke="red" stroke-width="4" />
<line x1="1238.750000" y1="376.250000" x2="1171.250000" y2="376.250000" stroke="red" stroke-width="4" />
<line x1="1373.750000" y1="376.250000" x2="1306.250000" y2="376.250000" stroke="red" stroke-width="4" />
<line x1="91.250000" y1="566.250000" x2="59.000000" y2="566.250000" stroke="red" stroke-width="4" />
<line x1="91.250000" y1="566.250000" x2="91.250000" y2="613.750000" stroke="red" stroke-width="4" />
<line x1="91.250000" y1="518.750000" x2="59.000000" y2="518.750000" stroke="red" stroke-width="4" />
<line x1="91.250000" y1="518.750000" x2="91.250000" y2="566.250000" stroke="red" stroke-width="4" />
<line x1="631.250000" y1="566.250000" x2="631.250000" y2="613.750000" stroke="red" stroke-width="4" />
<line x1="631.250000" y1="518.750000" x2="631.250000" y2="566.250000" stroke="red" stroke-width="4" />
<line x1="1036.250000" y1="566.250000" x2="1036.250000" y2="518.750000" stroke="red" stroke-width="4" />
<line x1="1036.250000" y1="518.750000" x2="1036.250000" y2="471.250000" stroke="red" stroke-width="4" />
<line x1="91.250000" y1="661.250000" x2="59.000000" y2="661.250000" stroke="red" stroke-width="4" />
<line x1="91.250000" y1="661.250000" x2="91.250000" y2="708.750000" stroke="red" stroke-width="4" />
<line x1="91.250000" y1="613.750000" x2="59.000000" y2="613.750000" stroke="red" stroke-width="4" />
<line x1="91.250000" y1="613.750000" x2="91.250000" y2="661.250000" stroke="red" stroke-width="4" />
<line x1="631.250000" y1="661.250000" x2="631.250000" y2="708.750000" stroke="red" stroke-width="4" />
<line x1="631.250000" y1="613.750000" x2="631.250000" y2="661.250000" stroke="red" stroke-width="4" />
<line x1="1036.250000" y1="661.250000" x2="1036.250000" y2="613.750000" stroke="red" stroke-width="4" />
<line x1="1036.250000" y1="613.750000" x2="1036.250000" y2="566.250000" stroke="red" stroke-width="4" />
<line x1="91.250000" y1="756.250000" x2="59.000000" y2="756.250000" stroke="red" stroke-width="4" />
<line x1="91.250000" y1="756.250000" x2="91.250000" y2="803.750000" stroke="red" stroke-width="4" />
<line x1="91.250000" y1="708.750000" x2="59.000000" y2="708.750000" stroke="red" stroke-width="4" />
<line x1="91.250000" y1="708.750000" x2="91.250000" y2="756.250000" stroke="red" stroke-width="4" />
<line x1="631.250000" y1="756.250000" x2="631.250000" y2="803.750000" stroke="red" stroke-width="4" />
<line x1="631.250000" y1="708.750000" x2="631.250000" y2="756.250000" stroke="red" stroke-width="4" />
<line x1="1036.250000" y1="756.250000" x2="1036.250000" y2="708.750000" stroke="red" stroke-width="4" />
<line x1="1036.250000" y1="708.750000" x2="1036.250000" y2="661.250000" stroke="red" stroke-width="4" />
<line x1="91.250000" y1="851.250000" x2="59.000000" y2="851.250000" stroke="red" stroke-width="4" />
<line x1="91.250000" y1="851.250000" x2="91.250000" y2="898.750000" stroke="red" stroke-width="4" />
<line x1="91.250000" y1="851.250000" x2="158.750000" y2="851.250000" stroke="red" stroke-width="4" />
<line x1="91.250000" y1="803.750000" x2="59.000000" y2="803.750000" stroke="red" stroke-width="4" />
<line x1="91.250000" y1="803.750000" x2="91.250000" y2="851.250000" stroke="red" stroke-width="4" />
<line x1="226.250000" y1="851.250000" x2="293.750000" y2="851.250000" stroke="red" stroke-width="4" />
<line x1="361.250000" y1="851.250000" x2="428.750000" y2="851.250000" stroke="red" stroke-width="4" />
<line x1="496.250000" y1="851.250000" x2="563.750000" y2="851.250000" stroke="red" stroke-width="4" />
<line x1="631.250000" y1="851.250000" x2="631.250000" y2="898.750000" stroke="red" stroke-width="4" />
<line x1="631.250000" y1="851.250000" x2="698.750000" y2="851.250000" stroke="red" stroke-width="4" />
<line x1="631.250000" y1="803.750000" x2="631.250000" y2="851.250000" stroke="red" stroke-width="4" />
<line x1="766.250000" y1="851.250000" x2="833.750000" y2="851.250000" stroke="red" stroke-width="4" />
<line x1="901.250000" y1="851.250000" x2="968.750000" y2="851.250000" stroke="red" stroke-width="4" />
<line x1="1036.250000" y1="851.250000" x2="1103.750000" y2="851.250000" stroke="red" stroke-width="4" />
<line x1="1036.250000" y1="851.250000" x2="1036.250000" y2="803.750000" stroke="red" stroke-width="4" />
<line x1="1036.250000" y1="803.750000" x2="1036.250000" y2="756.250000" stroke="red" stroke-width="4" />
<line x1="1171.250000" y1="851.250000" x2="1238.750000" y2="851.250000" stroke="red" stroke-width="4" />
<line x1="1306.250000" y1="851.250000" x2="1373.750000" y2="851.250000" stroke="red" stroke-width="4" />
<line x1="158.750000" y1="851.250000" x2="226.250000" y2="851.250000" stroke="red" stroke-width="4" />
<line x1="91.250000" y1="946.250000" x2="59.000000" y2="946.250000" stroke="red" stroke-width="4" />
<line x1="91.250000" y1="946.250000" x2="91.250000" y2="990.000000" stroke="red" stroke-width="4" />
<line x1="91.250000" y1="898.750000" x2="59.000000" y2="898.750000" stroke="red" stroke-width="4" />
<line x1="91.250000" y1="898.750000" x2="91.250000" y2="946.250000" stroke="red" stroke-width="4" />
<line x1="293.750000" y1="851.250000" x2="361.250000" y2="851.250000" stroke="red" stroke-width="4" />
<line x1="428.750000" y1="851.250000" x2="496.250000" y2="851.250000" stroke="red" stroke-width="4" />
<line x1="563.750000" y1="851.250000" x2="631.250000" y2="851.250000" stroke="red" stroke-width="4" />
<line x1="698.750000" y1="851.250000" x2="766.250000" y2="851.250000" stroke="red" stroke-width="4" />
<line x1="631.250000" y1="946.250000" x2="631.250000" y2="990.000000" stroke="red" stroke-width="4" />
<line x1="631.250000" y1="898.750000" x2="631.250000" y2="946.250000" stroke="red" stroke-width="4" />
<line x1="833.750000" y1="851.250000" x2="901.250000" y2="851.250000" stroke="red" stroke-width="4" />
<line x1="968.750000" y1="851.250000" x2="1036.250000" y2="851.250000" stroke="red" stroke-width="4" />
<line x1="1103.750000" y1="851.250000" x2="1171.250000" y2="851.250000" stroke="red" stroke-width="4" />
<line x1="1036.250000" y1="946.250000" x2="1036.250000" y2="898.750000" stroke="red" stroke-width="4" />
<line x1="1036.250000" y1="898.750000" x2="1036.250000" y2="851.250000" stroke="red" stroke-width="4" />
<line x1="1238.750000" y1="851.250000" x2="1306.250000" y2="851.250000" stroke="red" stroke-width="4" />
<line x1="1373.750000" y1="851.250000" x2="1441.250000" y2="851.250000" stroke="red" stroke-width="4" />
<line x1="91.250000" y1="1033.750000" x2="59.000000" y2="1033.750000" stroke="red" stroke-width="4" />
<line x1="91.250000" y1="1033.750000" x2="91.250000" y2="1061.000000" stroke="red" stroke-width="4" />
<line x1="91.250000" y1="990.000000" x2="59.000000" y2="990.000000" stroke="red" stroke-width="4" />
<line x1="91.250000" y1="990.000000" x2="91.250000" y2="1033.750000" stroke="red" stroke-width="4" />
<line x1="631.250000" y1="1033.750000" x2="631.250000" y2="1061.000000" stroke="red" stroke-width="4" />
<line x1="563.750000" y1="1033.750000" x2="563.750000" y2="1061.000000" stroke="red" stroke-width="4" />
<line x1="631.250000" y1="990.000000" x2="631.250000" y2="1033.750000" stroke="red" stroke-width="4" />
<line x1="1036.250000" y1="1033.750000" x2="1036.250000" y2="1061.000000" stroke="red" stroke-width="4" />
<line x1="1036.250000" y1="1033.750000" x2="1036.250000" y2="990.000000" stroke="red" stroke-width="4" />
<line x1="1103.750000" y1="1033.750000" x2="1103.750000" y2="1061.000000" stroke="red" stroke-width="4" />
<line x1="1036.250000" y1="990.000000" x2="1036.250000" y2="946.250000" stroke="red" stroke-width="4" />
<line x1="91.250000" y1="59.000000" x2="158.750000" y2="59.000000" stroke="red" stroke-width="4" />
<line x1="91.250000" y1="59.000000" x2="91.250000" y2="91.250000" stroke="red" stroke-width="4" />
<line x1="158.750000" y1="59.000000" x2="226.250000" y2="59.000000" stroke="red" stroke-width="4" />
<line x1="226.250000" y1="59.000000" x2="293.750000" y2="59.000000" stroke="red" stroke-width="4" />
<line x1="293.750000" y1="59.000000" x2="361.250000" y2="59.000000" stroke="red" stroke-width="4" />
<line x1="361.250000" y1="59.000000" x2="428.750000" y2="59.000000" stroke="red" stroke-width="4" />
<line x1="428.750000" y1="59.000000" x2="496.250000" y2="59.000000" stroke="red" stroke-width="4" />
<line x1="496.250000" y1="59.000000" x2="563.750000" y2="59.000000" stroke="red" stroke-width="4" />
<line x1="563.750000" y1="59.000000" x2="631.250000" y2="59.000000" stroke="red" stroke-width="4" />
<line x1="563.750000" y1="59.000000" x2="563.750000" y2="91.250000" stroke="red" stroke-width="4" />
<line x1="631.250000" y1="59.000000" x2="698.750000" y2="59.000000" stroke="red" stroke-width="4" />
<line x1="631.250000" y1="59.000000" x2="631.250000" y2="91.250000" stroke="red" stroke-width="4" />
<line x1="698.750000" y1="59.000000" x2="766.250000" y2="59.000000" stroke="red" stroke-width="4" />
<line x1="766.250000" y1="59.000000" x2="833.750000" y2="59.000000" stroke="red" stroke-width="4" />
<line x1="833.750000" y1="59.000000" x2="901.250000" y2="59.000000" stroke="red" stroke-width="4" />
<line x1="901.250000" y1="59.000000" x2="968.750000" y2="59.000000" stroke="red" stroke-width="4" />
<line x1="968.750000" y1="59.000000" x2="1036.250000" y2="59.000000" stroke="red" stroke-width="4" />
<line x1="1036.250000" y1="59.000000" x2="1103.750000" y2="59.000000" stroke="red" stroke-width="4" />
<line x1="1036.250000" y1="59.000000" x2="1036.250000" y2="91.250000" stroke="red" stroke-width="4" />
<line x1="1103.750000" y1="59.000000" x2="1171.250000" y2="59.000000" stroke="red" stroke-width="4" />
<line x1="1103.750000" y1="59.000000" x2="1103.750000" y2="91.250000" stroke="red" stroke-width="4" />
<line x1="1171.250000" y1="59.000000" x2="1238.750000" y2="59.000000" stroke="red" stroke-width="4" />
<line x1="1238.750000" y1="59.000000" x2="1306.250000" y2="59.000000" stroke="red" stroke-width="4" />
<line x1="1306.250000" y1="59.000000" x2="1373.750000" y2="59.000000" stroke="red" stroke-width="4" />
<line x1="1373.750000" y1="59.000000" x2="1441.250000" y2="59.000000" stroke="red" stroke-width="4" />
<line x1="1441.250000" y1="59.000000" x2="1540.000000" y2="47.500000" stroke="red" stroke-width="4" />
<line x1="95.000000" y1="6.000000" x2="95.000000" y2="47.500000" stroke="red" stroke-width="4" />
<line x1="95.000000" y1="6.000000" x2="95.000000" y2="-10.000000" stroke="red" stroke-width="4" />
<line x1="1445.000000" y1="6.000000" x2="95.000000" y2="6.000000" stroke="red" stroke-width="4" />
<line x1="1445.000000" y1="6.000000" x2="1445.000000" y2="-10.000000" stroke="red" stroke-width="4" />
<line x1="91.250000" y1="1061.000000" x2="91.250000" y2="1033.750000" stroke="red" stroke-width="4" />
<line x1="563.750000" y1="1061.000000" x2="563.750000" y2="1033.750000" stroke="red" stroke-width="4" />
<line x1="631.250000" y1="1061.000000" x2="631.250000" y2="1033.750000" stroke="red" stroke-width="4" />
<line x1="1036.250000" y1="1061.000000" x2="1036.250000" y2="1033.750000" stroke="red" stroke-width="4" />
<line x1="1103.750000" y1="1061.000000" x2="1103.750000" y2="1033.750000" stroke="red" stroke-width="4" />
<line x1="95.000000" y1="1114.000000" x2="95.000000" y2="1140.000000" stroke="red" stroke-width="4" />
<line x1="59.000000" y1="91.250000" x2="47.500000" y2="95.000000" stroke="red" stroke-width="4" />
<line x1="59.000000" y1="91.250000" x2="91.250000" y2="91.250000" stroke="red" stroke-width="4" />
<line x1="59.000000" y1="138.750000" x2="59.000000" y2="91.250000" stroke="red" stroke-width="4" />
<line x1="59.000000" y1="138.750000" x2="91.250000" y2="138.750000" stroke="red" stroke-width="4" />
<line x1="59.000000" y1="186.250000" x2="59.000000" y2="138.750000" stroke="red" stroke-width="4" />
<line x1="59.000000" y1="186.250000" x2="91.250000" y2="186.250000" stroke="red" stroke-width="4" />
<line x1="59.000000" y1="233.750000" x2="59.000000" y2="186.250000" stroke="red" stroke-width="4" />
<line x1="59.000000" y1="233.750000" x2="91.250000" y2="233.750000" stroke="red" stroke-width="4" />
<line x1="59.000000" y1="281.250000" x2="59.000000" y2="233.750000" stroke="red" stroke-width="4" />
<line x1="59.000000" y1="281.250000" x2="91.250000" y2="281.250000" stroke="red" stroke-width="4" />
<line x1="59.000000" y1="328.750000" x2="59.000000" y2="281.250000" stroke="red" stroke-width="4" />
<line x1="59.000000" y1="328.750000" x2="91.250000" y2="328.750000" stroke="red" stroke-width="4" />
<line x1="59.000000" y1="376.250000" x2="59.000000" y2="328.750000" stroke="red" stroke-width="4" />
<line x1="59.000000" y1="376.250000" x2="91.250000" y2="376.250000" stroke="red" stroke-width="4" />
<line x1="59.000000" y1="423.750000" x2="59.000000" y2="376.250000" stroke="red" stroke-width="4" />
<line x1="59.000000" y1="423.750000" x2="91.250000" y2="423.750000" stroke="red" stroke-width="4" />
<line x1="59.000000" y1="471.250000" x2="59.000000" y2="423.750000" stroke="red" stroke-width="4" />
<line x1="59.000000" y1="471.250000" x2="91.250000" y2="471.250000" stroke="red" stroke-width="4" />
<line x1="59.000000" y1="518.750000" x2="59.000000" y2="471.250000" stroke="red" stroke-width="4" />
<line x1="59.000000" y1="518.750000" x2="91.250000" y2="518.750000" stroke="red" stroke-width="4" />
<line x1="59.000000" y1="566.250000" x2="59.000000" y2="518.750000" stroke="red" stroke-width="4" />
<line x1="59.000000" y1="566.250000" x2="91.250000" y2="566.250000" stroke="red" stroke-width="4" />
<line x1="59.000000" y1="613.750000" x2="59.000000" y2="566.250000" stroke="red" stroke-width="4" />
<line x1="59.000000" y1="613.750000" x2="91.250000" y2="613.750000" stroke="red" stroke-width="4" />
<line x1="59.000000" y1="661.250000" x2="59.000000" y2="613.750000" stroke="red" stroke-width="4" />
<line x1="59.000000" y1="661.250000" x2="91.250000" y2="661.250000" stroke="red" stroke-width="4" />
<line x1="59.000000" y1="708.750000" x2="59.000000" y2="661.250000" stroke="red" stroke-width="4" />
<line x1="59.000000" y1="708.750000" x2="91.250000" y2="708.750000" stroke="red" stroke-width="4" />
<line x1="59.000000" y1="756.250000" x2="59.000000" y2="708.750000" stroke="red" stroke-width="4" />
<line x1="59.000000" y1="756.250000" x2="91.250000" y2="756.250000" stroke="red" stroke-width="4" />
<line x1="59.000000" y1="803.750000" x2="59.000000" y2="756.250000" stroke="red" stroke-width="4" />
<line x1="59.000000" y1="803.750000" x2="91.250000" y2="803.750000" stroke="red" stroke-width="4" />
<line x1="59.000000" y1="851.250000" x2="59.000000" y2="803.750000" stroke="red" stroke-width="4" />
<line x1="59.000000" y1="851.250000" x2="91.250000" y2="851.250000" stroke="red" stroke-width="4" />
<line x1="59.000000" y1="898.750000" x2="59.000000" y2="851.250000" stroke="red" stroke-width="4" />
<line x1="59.000000" y1="898.750000" x2="91.250000" y2="898.750000" stroke="red" stroke-width="4" />
<line x1="59.000000" y1="946.250000" x2="59.000000" y2="898.750000" stroke="red" stroke-width="4" />
<line x1="59.000000" y1="946.250000" x2="91.250000" y2="946.250000" stroke="red" stroke-width="4" />
<line x1="59.000000" y1="990.000000" x2="59.000000" y2="946.250000" stroke="red" stroke-width="4" />
<line x1="59.000000" y1="990.000000" x2="91.250000" y2="990.000000" stroke="red" stroke-width="4" />
<line x1="59.000000" y1="1033.750000" x2="59.000000" y2="990.000000" stroke="red" stroke-width="4" />
<line x1="59.000000" y1="1033.750000" x2="91.250000" y2="1033.750000" stroke="red" stroke-width="4" />
<line x1="6.000000" y1="95.000000" x2="6.000000" y2="1045.000000" stroke="red" stroke-width="4" />
<line x1="6.000000" y1="95.000000" x2="-10.000000" y2="95.000000" stroke="red" stroke-width="4" />
<line x1="6.000000" y1="1045.000000" x2="15.000000" y2="1062.500000" stroke="red" stroke-width="4" />
<line x1="6.000000" y1="1045.000000" x2="-10.000000" y2="1045.000000" stroke="red" stroke-width="4" />
<line x1="0.000000" y1="47.500000" x2="47.500000" y2="95.000000" stroke="red" stroke-width="4" />
<line x1="95.000000" y1="47.500000" x2="91.250000" y2="59.000000" stroke="red" stroke-width="4" />
<line x1="95.000000" y1="47.500000" x2="47.500000" y2="0.000000" stroke="red" stroke-width="4" />
<line x1="47.500000" y1="95.000000" x2="6.000000" y2="95.000000" stroke="red" stroke-width="4" />
<line x1="47.500000" y1="95.000000" x2="95.000000" y2="47.500000" stroke="red" stroke-width="4" />
<line x1="47.500000" y1="0.000000" x2="0.000000" y2="47.500000" stroke="red" stroke-width="4" />
<line x1="1540.000000" y1="47.500000" x2="1445.000000" y2="6.000000" stroke="red" stroke-width="4" />
<line x1="15.000000" y1="1062.500000" x2="57.500000" y2="1105.000000" stroke="red" stroke-width="4" />
<line x1="15.000000" y1="1062.500000" x2="15.000000" y2="1112.500000" stroke="red" stroke-width="4" />
<line x1="15.000000" y1="1062.500000" x2="7.500000" y2="1070.000000" stroke="red" stroke-width="4" />
<line x1="50.000000" y1="1062.500000" x2="59.000000" y2="1033.750000" stroke="red" stroke-width="4" />
</svg>
